<?xml version="1.0" encoding="UTF-8"?>
<svg xmlns="http://www.w3.org/2000/svg" width="600" height="1000" viewBox="0 0 600 1000" role="img" aria-labelledby="title desc">
  <title id="title">Silhouette della Sardegna da OpenStreetMap</title>
  <desc id="desc">Confine regionale della Sardegna, relazione OSM 7361997. Data © OpenStreetMap contributors, ODbL 1.0. http://osm.org/copyright</desc>
  <path d="M41.67 233.21 L42.25 233.75 L42.79 233.65 L42.83 233.97 L43.12 233.75 L43.06 234.11 L43.58 234.51 L43.56 234.94 L43.94 235.41 L45.11 235.07 L47.04 236.32 L47.20 237.22 L47.03 237.19 L47.42 237.73 L48.49 238.23 L48.34 239.04 L49.07 239.73 L49.17 240.52 L51.59 240.51 L51.23 241.37 L51.40 241.61 L53.49 242.73 L55.31 245.69 L54.87 246.80 L55.13 248.35 L56.45 248.91 L58.30 248.77 L58.20 249.11 L58.65 249.72 L61.09 249.60 L61.80 249.96 L61.46 250.50 L61.59 250.84 L62.22 250.82 L62.75 250.37 L63.72 250.83 L64.23 252.07 L64.06 254.30 L63.03 254.63 L62.96 254.91 L61.67 254.80 L61.69 255.19 L61.40 255.38 L61.61 255.58 L61.60 256.19 L62.42 257.02 L61.82 257.44 L61.94 258.07 L61.27 258.24 L61.31 258.57 L60.86 258.96 L61.23 259.78 L60.87 259.76 L60.90 260.28 L60.11 260.77 L60.80 261.48 L60.85 262.03 L60.32 262.00 L59.89 262.42 L60.24 263.27 L59.45 263.19 L60.44 264.71 L59.61 264.61 L59.95 265.08 L59.48 265.35 L59.60 265.89 L59.38 266.21 L59.62 266.89 L59.16 267.15 L59.10 267.79 L58.39 268.23 L58.25 268.71 L58.92 268.55 L59.23 268.98 L58.27 269.70 L58.70 270.43 L57.98 271.08 L58.09 271.44 L57.62 271.11 L57.20 271.52 L55.89 271.25 L55.53 271.43 L55.42 272.35 L53.14 272.70 L52.73 273.12 L50.79 272.56 L50.88 272.94 L50.41 272.99 L51.11 273.32 L51.59 274.19 L51.20 274.90 L49.43 275.65 L48.99 275.34 L48.26 275.82 L47.39 275.45 L46.55 275.61 L45.81 276.98 L45.94 277.79 L45.59 278.16 L45.86 278.80 L45.63 278.90 L45.77 279.54 L45.50 279.99 L45.56 280.65 L46.38 280.81 L46.69 282.30 L46.36 282.93 L46.99 283.23 L46.87 283.46 L47.28 283.88 L46.85 284.51 L45.76 284.91 L46.95 285.30 L46.06 286.05 L46.71 286.98 L46.65 287.33 L47.18 288.47 L47.21 289.63 L47.59 290.20 L47.35 290.77 L47.53 291.78 L47.19 292.40 L47.46 292.46 L47.44 293.07 L47.86 293.58 L47.62 294.33 L48.71 294.54 L49.21 294.07 L49.20 295.17 L49.82 295.64 L50.38 296.68 L49.76 297.26 L49.47 297.97 L49.88 299.34 L51.38 300.67 L50.94 300.83 L51.09 300.97 L50.84 301.27 L50.94 301.52 L51.84 301.70 L52.09 300.89 L51.84 300.57 L52.31 299.39 L51.83 297.57 L52.24 297.31 L52.18 296.56 L51.61 296.43 L51.22 295.70 L50.85 295.54 L51.12 295.34 L51.02 295.00 L51.57 293.18 L52.03 292.46 L52.99 292.25 L53.33 292.59 L53.47 293.61 L53.92 293.85 L54.13 293.57 L54.40 290.94 L54.76 290.65 L54.22 290.22 L53.47 290.12 L53.18 289.28 L53.42 289.08 L53.16 289.26 L52.98 288.77 L53.51 288.13 L55.49 288.51 L55.66 287.89 L57.13 286.88 L57.93 283.93 L58.66 283.47 L59.78 283.45 L60.02 281.61 L59.60 280.90 L59.54 279.67 L59.74 279.26 L60.66 278.80 L62.75 278.81 L64.46 279.33 L65.64 280.09 L66.44 281.12 L67.26 283.17 L68.33 284.42 L68.62 285.26 L68.19 287.79 L67.67 288.49 L65.84 288.76 L63.88 288.36 L64.82 289.83 L65.26 290.06 L65.23 290.94 L64.75 291.16 L64.76 291.66 L63.98 292.84 L64.25 293.09 L62.93 293.86 L62.03 295.65 L62.28 296.50 L62.13 297.42 L62.77 297.25 L62.99 297.90 L63.52 297.68 L63.78 297.95 L63.80 298.62 L64.23 298.58 L65.00 297.42 L65.15 297.56 L65.55 297.15 L67.27 297.42 L68.10 298.09 L69.20 298.11 L70.37 297.71 L72.61 298.25 L73.54 297.82 L73.88 297.05 L74.23 296.92 L74.53 297.09 L74.77 297.83 L76.36 298.32 L75.89 297.45 L76.51 296.81 L76.29 296.06 L77.01 295.89 L76.84 295.34 L77.22 295.26 L76.64 294.62 L76.63 293.50 L76.92 293.14 L77.47 292.79 L78.01 292.91 L77.92 292.67 L78.24 292.15 L78.63 292.52 L78.92 292.25 L79.26 292.70 L79.62 292.31 L80.42 292.21 L81.27 292.30 L82.75 293.43 L82.86 292.44 L83.49 291.70 L83.30 291.45 L83.27 290.20 L84.35 289.71 L84.78 289.94 L84.80 289.56 L85.08 289.69 L85.07 289.30 L85.82 288.55 L86.34 288.70 L86.62 289.34 L88.23 289.61 L89.44 289.61 L89.88 289.42 L89.14 289.40 L89.18 288.35 L89.45 288.34 L89.52 289.02 L89.51 288.54 L89.89 288.35 L91.42 288.60 L92.84 289.44 L95.14 291.60 L96.37 294.36 L98.40 297.04 L98.66 298.84 L98.28 299.88 L96.33 299.64 L95.53 300.04 L96.41 299.77 L97.55 300.01 L97.27 300.65 L96.68 301.13 L97.37 300.71 L97.62 300.08 L98.07 300.24 L97.65 301.66 L97.05 301.93 L96.68 301.55 L95.50 301.44 L94.76 299.55 L95.07 300.97 L95.50 301.58 L96.53 302.03 L96.85 303.29 L97.85 303.62 L97.94 304.86 L98.79 305.21 L98.39 305.60 L98.54 306.05 L99.39 305.81 L98.98 307.15 L99.43 307.20 L99.29 307.37 L99.54 307.81 L99.14 308.23 L99.93 308.46 L99.99 308.72 L99.54 309.26 L99.96 309.43 L100.03 309.94 L100.40 310.20 L100.12 310.97 L100.62 311.31 L101.25 313.82 L102.18 314.87 L101.92 315.29 L102.85 316.20 L102.90 317.54 L103.27 318.20 L103.02 318.54 L103.37 318.65 L103.47 319.09 L103.37 319.83 L103.18 319.88 L104.36 320.69 L104.32 321.06 L104.62 321.12 L105.08 322.05 L105.11 322.68 L104.67 323.24 L105.05 323.82 L104.84 324.71 L104.62 324.74 L104.81 324.83 L104.57 325.05 L104.99 325.27 L104.69 325.63 L105.63 325.82 L108.50 324.30 L108.83 324.74 L108.53 324.80 L109.08 324.88 L109.75 326.03 L111.66 326.75 L111.78 327.51 L112.07 327.69 L112.62 327.73 L113.70 327.16 L114.58 327.71 L115.10 328.86 L115.78 329.59 L115.69 330.18 L116.05 330.84 L116.47 334.18 L117.41 336.18 L117.56 338.57 L118.44 339.31 L119.03 340.79 L118.86 342.04 L119.05 342.38 L118.63 342.54 L119.02 342.72 L118.92 343.45 L120.10 345.33 L120.90 347.88 L122.15 350.22 L121.62 351.73 L123.05 353.61 L122.88 354.01 L123.36 356.65 L123.26 358.16 L123.53 358.51 L123.39 360.12 L123.99 360.86 L124.12 361.55 L123.42 362.70 L123.63 365.09 L123.23 365.71 L123.07 366.81 L122.36 367.27 L122.28 368.22 L121.47 368.71 L121.95 370.59 L121.54 370.74 L121.03 371.53 L121.38 372.09 L121.05 372.36 L121.29 373.58 L120.78 373.89 L120.89 374.40 L120.28 374.71 L120.38 375.32 L119.98 375.43 L119.98 375.84 L120.18 375.83 L119.37 376.35 L120.18 376.51 L120.09 376.85 L120.57 377.15 L120.11 377.92 L120.42 379.05 L119.80 379.20 L119.70 379.94 L119.25 379.81 L117.36 380.65 L117.66 380.85 L117.26 381.06 L117.58 381.47 L117.00 382.14 L117.88 382.62 L117.72 382.96 L117.42 382.94 L117.81 383.06 L117.68 383.20 L118.21 383.93 L117.68 384.53 L118.27 384.67 L118.30 385.06 L118.72 385.18 L118.70 385.55 L119.37 385.49 L119.78 386.03 L119.72 386.53 L119.13 387.18 L119.20 387.86 L118.67 388.02 L118.23 389.88 L120.39 390.38 L120.70 390.28 L120.64 389.90 L120.93 389.86 L120.95 389.50 L121.47 389.36 L121.66 389.61 L122.33 389.13 L122.67 390.00 L123.32 390.19 L124.26 389.94 L124.44 390.31 L124.92 390.46 L125.70 390.26 L125.32 390.79 L126.23 391.11 L127.58 390.82 L128.59 391.07 L129.87 390.17 L130.68 391.03 L131.51 390.88 L131.57 391.24 L132.25 391.29 L132.13 391.48 L132.43 391.78 L133.59 391.93 L133.23 392.40 L133.98 393.19 L133.86 394.23 L134.70 394.59 L134.74 394.86 L134.38 394.92 L134.74 395.07 L135.29 396.07 L134.72 396.61 L135.11 396.78 L135.27 396.36 L136.56 396.84 L136.42 397.57 L136.79 397.87 L137.74 397.57 L138.16 396.95 L138.39 397.20 L138.86 397.02 L138.78 397.60 L139.19 397.15 L139.54 397.42 L140.39 396.80 L140.82 397.17 L140.61 397.44 L141.56 397.52 L141.94 397.99 L141.85 398.20 L142.36 398.29 L142.50 398.81 L143.17 399.30 L142.87 399.72 L143.10 399.60 L143.18 399.88 L142.84 400.22 L143.48 400.33 L143.48 400.87 L143.87 401.18 L143.58 402.19 L144.31 402.63 L143.24 402.91 L142.99 403.76 L143.19 405.06 L144.06 406.08 L145.18 406.37 L144.41 407.20 L144.40 407.44 L144.59 407.68 L144.49 407.45 L145.75 407.80 L145.81 408.17 L146.25 408.09 L146.10 408.47 L146.26 409.30 L145.69 410.52 L146.12 410.34 L146.02 410.68 L146.46 411.32 L146.28 410.51 L146.61 410.28 L146.34 410.08 L147.84 410.21 L148.68 410.93 L149.04 412.06 L148.91 413.39 L149.13 415.96 L148.91 416.66 L148.29 417.08 L147.78 417.95 L147.89 418.60 L147.24 420.75 L147.48 421.64 L146.93 422.06 L146.74 422.86 L146.93 423.19 L145.96 425.74 L146.25 426.59 L146.02 427.92 L145.39 428.27 L144.88 430.37 L144.66 430.38 L143.97 431.59 L144.02 431.93 L143.41 432.35 L143.01 432.25 L143.33 432.70 L143.19 433.05 L142.34 433.13 L142.67 433.49 L142.28 434.03 L142.70 434.06 L142.78 433.49 L143.62 434.06 L143.47 435.39 L143.70 435.55 L143.02 436.49 L142.83 437.46 L143.17 437.70 L142.87 437.98 L142.99 438.46 L142.79 439.34 L142.44 439.35 L142.16 439.80 L142.50 441.12 L141.73 441.47 L142.81 441.79 L142.80 442.24 L143.10 442.32 L142.99 442.63 L143.26 442.79 L143.39 443.60 L144.23 445.26 L143.31 446.39 L143.67 447.60 L143.47 448.13 L143.01 448.39 L142.43 450.65 L141.34 451.70 L141.44 453.26 L140.62 454.29 L140.84 454.80 L140.98 454.61 L141.76 454.88 L142.38 455.91 L142.34 457.07 L142.10 457.65 L141.71 457.82 L141.97 459.19 L141.91 460.02 L141.70 460.16 L141.93 460.67 L141.84 461.30 L141.49 461.51 L141.84 462.07 L141.34 463.04 L141.78 463.43 L141.57 464.14 L142.88 466.16 L143.26 467.85 L144.16 469.28 L145.43 472.76 L149.43 477.78 L149.81 480.13 L150.11 479.83 L149.81 480.81 L150.17 480.77 L149.72 481.63 L150.05 482.12 L149.89 482.35 L149.61 482.20 L149.64 482.94 L150.45 482.58 L150.77 482.72 L151.30 483.80 L150.91 484.54 L150.52 484.39 L150.25 484.76 L149.78 484.90 L149.66 485.84 L149.76 486.12 L150.00 486.02 L149.75 486.44 L150.19 486.68 L149.89 486.69 L150.23 487.20 L150.37 486.68 L150.65 486.64 L150.63 487.50 L151.09 487.99 L151.86 490.01 L151.06 490.26 L150.49 489.83 L150.54 490.46 L150.96 490.47 L150.79 492.74 L146.28 498.20 L139.98 504.25 L136.85 505.51 L136.50 504.96 L136.65 505.38 L136.17 505.15 L135.86 504.69 L135.86 504.01 L135.08 503.69 L134.22 504.04 L134.00 503.76 L132.97 505.47 L132.22 505.64 L131.60 506.71 L130.05 507.50 L127.22 508.07 L125.53 506.96 L125.50 506.23 L124.61 504.48 L124.70 504.09 L124.23 503.80 L123.14 504.25 L123.22 504.90 L123.01 505.28 L123.40 505.34 L123.51 505.68 L122.49 507.04 L122.02 506.79 L121.89 507.11 L121.27 507.22 L121.26 507.63 L120.66 507.72 L120.07 506.86 L119.26 506.94 L119.29 507.31 L118.99 507.61 L118.67 507.45 L118.94 508.29 L117.60 509.03 L117.30 508.89 L116.92 509.39 L117.15 509.72 L116.96 509.84 L117.09 510.24 L116.44 510.20 L116.82 511.44 L117.16 511.63 L116.95 512.03 L117.22 512.26 L116.93 512.95 L118.60 512.58 L119.87 513.02 L120.71 512.47 L121.06 512.83 L121.47 512.78 L121.88 512.55 L122.22 511.69 L122.77 511.37 L124.30 511.66 L125.63 512.99 L125.82 514.71 L126.50 515.98 L127.47 516.33 L127.87 517.67 L127.62 519.67 L126.79 520.45 L126.87 521.15 L126.58 522.43 L126.86 523.13 L126.68 523.27 L126.93 523.71 L126.94 524.76 L126.53 524.98 L125.87 526.36 L125.22 526.48 L125.13 526.80 L125.37 527.00 L125.13 527.19 L125.16 527.56 L124.13 528.52 L123.91 529.29 L123.20 530.16 L123.07 531.23 L122.28 532.14 L121.32 532.48 L120.96 534.20 L121.38 535.25 L122.19 535.48 L122.77 536.10 L123.46 538.07 L123.74 539.70 L123.62 540.34 L123.91 540.76 L124.01 541.69 L123.46 542.65 L123.89 543.03 L123.99 543.38 L123.75 544.42 L123.46 544.73 L124.12 545.28 L123.95 546.18 L124.45 546.75 L123.95 547.82 L124.12 548.23 L123.74 550.49 L124.06 551.21 L123.53 553.17 L123.19 556.34 L123.66 558.03 L123.62 558.98 L123.20 560.12 L122.29 560.61 L123.20 561.31 L123.32 562.21 L123.12 562.58 L124.16 564.81 L124.99 564.67 L126.27 563.78 L126.84 563.86 L128.32 565.27 L129.68 565.64 L131.08 566.80 L133.12 568.98 L133.89 570.49 L134.40 570.94 L135.35 573.59 L135.26 574.33 L134.78 574.81 L135.37 575.56 L135.31 576.80 L134.44 577.84 L133.51 578.06 L133.25 579.51 L134.31 580.95 L134.87 580.62 L134.76 580.22 L135.18 579.86 L135.33 578.72 L135.94 578.13 L135.68 577.24 L135.72 575.78 L136.51 574.25 L136.15 572.42 L137.22 570.78 L138.97 569.32 L141.56 566.21 L145.08 563.73 L144.81 563.49 L144.05 563.76 L143.81 563.50 L143.84 562.70 L148.02 562.37 L149.26 562.72 L150.13 562.56 L150.04 562.81 L150.56 561.55 L151.52 560.41 L152.23 560.81 L151.20 561.96 L150.70 563.27 L150.18 563.71 L150.78 563.33 L151.91 563.77 L152.38 563.78 L150.82 563.28 L151.02 562.72 L151.60 562.94 L151.49 563.31 L151.71 562.68 L151.61 562.91 L151.04 562.69 L151.27 562.06 L151.75 562.17 L151.72 562.51 L151.89 562.69 L152.01 561.95 L152.45 561.77 L156.54 561.13 L158.85 561.91 L161.26 563.20 L163.66 565.31 L163.31 565.55 L163.38 565.64 L163.68 565.32 L164.63 566.49 L164.21 566.73 L164.28 566.84 L164.64 566.50 L165.23 567.29 L164.66 567.68 L164.69 567.72 L165.24 567.30 L165.91 568.46 L166.64 571.72 L165.97 572.15 L166.04 572.44 L166.82 572.08 L167.87 573.77 L166.13 576.20 L166.20 576.64 L167.47 577.72 L167.09 578.05 L169.32 577.27 L169.87 578.74 L175.07 577.96 L175.13 578.23 L175.09 577.96 L175.35 577.91 L175.51 578.53 L175.07 578.65 L174.97 578.26 L175.05 578.65 L173.79 578.94 L173.94 579.96 L174.64 581.41 L174.04 581.71 L173.58 580.76 L171.08 579.22 L169.95 579.24 L170.06 579.69 L167.88 580.00 L165.27 577.93 L167.78 580.09 L169.96 579.76 L170.23 580.30 L170.94 584.30 L170.46 590.48 L170.01 592.06 L169.67 592.11 L170.29 592.26 L170.07 592.26 L169.94 593.28 L169.60 593.19 L169.54 592.41 L169.47 592.20 L169.39 592.15 L169.57 593.29 L169.92 593.35 L169.94 593.77 L167.76 606.15 L164.34 614.57 L163.84 615.32 L163.25 615.19 L163.11 615.45 L163.41 615.29 L163.50 615.95 L160.30 619.82 L158.61 621.33 L157.85 622.74 L157.16 622.32 L156.98 622.34 L156.77 622.54 L157.73 623.12 L157.49 623.68 L158.70 625.27 L160.02 626.24 L157.01 630.81 L157.33 631.06 L157.40 631.23 L158.02 631.27 L157.98 631.57 L157.04 631.99 L157.00 631.55 L157.37 631.30 L157.01 630.84 L155.21 632.33 L155.54 633.21 L156.76 633.85 L156.45 633.96 L156.26 634.93 L156.01 634.76 L156.32 635.03 L156.04 635.74 L155.40 635.28 L155.84 634.65 L155.39 635.28 L156.05 635.83 L154.67 638.57 L153.95 638.14 L152.50 638.44 L150.53 637.55 L150.72 637.20 L151.90 637.37 L153.63 636.73 L153.20 636.28 L153.56 636.10 L153.53 635.99 L153.16 636.26 L153.03 636.07 L153.44 635.33 L153.30 635.03 L152.04 634.57 L150.39 632.07 L150.61 631.38 L150.99 631.20 L149.84 630.85 L149.22 629.54 L147.87 627.94 L146.89 626.11 L146.79 625.28 L146.10 625.03 L145.43 624.31 L145.14 622.92 L144.57 621.79 L144.53 620.68 L143.26 618.86 L142.21 618.12 L142.26 617.39 L141.79 616.54 L141.07 616.03 L139.19 616.08 L138.82 617.10 L139.04 617.22 L139.11 618.23 L138.69 619.27 L137.62 619.87 L137.73 620.34 L137.28 620.21 L136.84 620.57 L137.30 620.95 L137.00 622.43 L137.34 624.53 L138.19 626.12 L137.84 626.67 L138.32 626.78 L138.38 627.08 L138.08 627.19 L138.44 627.25 L138.54 627.81 L138.11 627.87 L138.42 628.29 L137.90 628.69 L138.15 629.04 L138.09 629.49 L137.74 629.43 L137.96 629.72 L137.26 630.51 L137.58 630.75 L137.28 631.14 L137.87 631.80 L138.81 632.25 L138.89 632.86 L138.23 633.27 L138.85 633.83 L138.79 634.94 L137.78 636.27 L138.02 637.54 L137.83 638.06 L137.36 637.91 L137.53 638.20 L137.21 638.30 L137.20 638.77 L137.47 638.77 L137.75 638.25 L138.69 638.68 L139.69 638.43 L139.68 638.95 L140.40 639.28 L140.49 640.17 L140.20 640.42 L140.34 641.74 L139.79 643.42 L140.02 644.56 L138.95 647.89 L138.28 649.33 L137.66 649.66 L136.93 649.38 L136.50 649.57 L136.97 650.08 L136.40 650.41 L138.06 651.18 L137.08 652.35 L137.31 652.64 L137.82 652.47 L137.34 653.12 L137.51 653.46 L138.14 653.76 L138.91 653.54 L139.63 654.93 L139.53 655.31 L140.06 655.65 L140.56 655.46 L141.40 656.02 L141.56 656.73 L141.86 656.59 L140.82 657.30 L140.84 657.96 L140.59 658.35 L139.73 658.76 L139.93 660.17 L138.73 660.83 L139.55 661.84 L139.12 662.23 L139.37 662.97 L139.12 663.21 L139.41 664.05 L138.85 664.91 L138.82 665.58 L139.89 666.27 L139.99 666.66 L139.76 667.41 L139.33 667.52 L138.74 668.34 L138.84 669.14 L138.22 669.43 L139.24 671.03 L139.00 671.64 L139.31 671.87 L139.39 674.28 L139.68 675.05 L140.06 675.45 L140.80 675.24 L141.76 675.49 L141.94 676.02 L141.53 676.32 L141.86 676.95 L142.79 676.65 L143.52 677.06 L143.82 678.49 L143.53 680.10 L143.16 680.45 L144.29 680.54 L144.49 681.52 L144.98 681.74 L144.82 682.23 L145.14 682.85 L145.05 683.92 L144.59 685.57 L144.16 685.51 L144.12 686.06 L143.25 686.56 L143.71 687.36 L142.98 687.89 L142.90 688.40 L142.83 690.85 L143.12 691.34 L143.23 692.44 L142.75 693.53 L141.96 693.69 L142.13 694.12 L141.79 694.81 L141.82 695.73 L140.29 697.98 L140.68 699.18 L140.10 699.67 L140.07 700.73 L139.52 701.12 L139.96 702.85 L137.96 707.41 L136.14 710.75 L135.48 711.53 L134.47 713.82 L132.58 716.09 L131.95 717.75 L130.19 720.45 L129.79 720.69 L129.63 721.41 L125.78 726.90 L125.66 727.40 L124.67 728.52 L124.03 728.48 L123.37 729.03 L122.68 728.89 L122.53 729.08 L122.88 729.59 L122.56 730.06 L122.62 730.75 L121.66 731.41 L121.37 731.33 L121.29 731.72 L120.58 731.86 L120.49 732.28 L120.09 732.34 L119.96 732.89 L119.67 732.95 L119.72 734.22 L118.91 734.90 L119.18 736.32 L119.04 736.74 L118.81 736.42 L118.64 736.77 L119.11 736.92 L119.42 737.68 L119.18 738.11 L118.44 738.06 L118.27 738.42 L118.85 739.48 L118.37 739.57 L118.55 740.09 L118.24 740.42 L117.43 740.24 L117.26 740.54 L117.53 740.71 L117.41 740.88 L118.15 740.80 L119.02 741.21 L119.18 741.64 L119.52 741.57 L120.42 742.17 L120.65 743.12 L120.20 744.07 L120.52 744.44 L122.68 744.58 L125.23 745.55 L125.52 745.85 L125.37 746.05 L126.12 746.48 L126.89 746.57 L127.32 748.38 L127.44 752.17 L126.82 755.84 L126.37 757.06 L124.91 758.59 L124.87 759.86 L124.45 760.09 L124.65 760.66 L123.71 761.65 L123.07 761.18 L122.64 761.19 L123.53 761.60 L123.11 761.87 L123.62 762.23 L123.28 762.21 L123.50 762.38 L123.27 762.68 L122.87 762.37 L123.10 762.04 L122.84 762.35 L122.60 762.17 L122.98 761.54 L122.38 762.27 L122.47 762.64 L121.91 763.06 L122.23 763.58 L121.59 763.76 L121.21 764.65 L120.62 764.59 L120.38 765.02 L120.13 764.59 L119.92 765.18 L119.27 765.09 L119.01 767.19 L118.61 767.42 L118.61 768.35 L118.35 768.38 L118.36 768.93 L118.20 768.82 L118.36 769.02 L117.36 769.30 L117.49 769.82 L116.95 769.99 L117.74 770.72 L117.46 771.32 L117.72 771.64 L117.07 772.35 L117.40 773.17 L117.16 773.42 L116.60 773.14 L116.24 772.16 L115.36 773.02 L115.49 773.75 L115.79 773.83 L115.81 774.22 L116.22 774.13 L115.98 774.46 L116.37 775.46 L117.09 775.57 L117.17 775.97 L117.72 776.03 L117.95 776.49 L119.12 776.72 L119.79 776.53 L120.49 776.94 L120.38 777.64 L119.77 777.99 L119.96 779.91 L119.29 780.18 L119.52 780.71 L120.26 781.06 L120.00 781.53 L119.09 781.50 L118.96 781.77 L120.14 781.86 L120.50 783.01 L121.17 783.11 L121.63 782.75 L122.06 783.14 L122.18 783.78 L121.87 784.01 L121.89 784.51 L121.48 784.67 L121.36 785.59 L122.19 785.82 L122.28 786.57 L122.02 786.89 L122.60 786.82 L122.72 787.84 L123.83 787.96 L124.20 787.67 L125.26 788.12 L125.81 788.03 L125.99 788.38 L126.46 788.13 L128.42 788.32 L129.18 789.46 L129.78 789.79 L129.86 790.10 L129.59 790.51 L129.92 790.62 L129.58 791.19 L129.76 791.76 L129.59 792.17 L128.82 792.57 L129.33 792.85 L129.08 792.99 L129.08 793.66 L129.61 794.45 L130.06 794.07 L130.52 794.66 L131.05 794.58 L131.01 794.91 L131.77 795.46 L131.54 796.23 L132.31 796.47 L132.30 796.85 L132.66 796.95 L133.43 798.23 L133.15 798.73 L133.74 799.53 L133.55 800.16 L134.20 801.34 L133.88 803.56 L134.54 805.02 L134.46 805.43 L134.84 805.92 L134.62 807.33 L133.79 809.71 L133.38 809.98 L132.69 811.19 L132.10 813.38 L130.85 815.43 L129.89 816.19 L128.21 816.25 L126.89 816.90 L124.86 819.57 L124.57 820.33 L123.89 820.85 L123.89 821.78 L122.58 822.70 L122.10 822.74 L120.82 824.02 L120.13 825.13 L119.04 825.95 L118.88 826.42 L117.98 826.77 L116.24 828.51 L115.60 829.56 L113.43 831.29 L114.04 832.50 L114.28 833.80 L114.09 834.24 L114.30 835.30 L113.87 837.01 L114.51 837.91 L114.84 839.16 L115.13 838.65 L116.03 838.96 L116.35 839.78 L116.07 841.03 L116.93 841.20 L116.99 841.47 L117.36 841.81 L117.44 842.55 L117.75 842.60 L117.49 842.43 L117.44 841.77 L117.06 841.44 L117.37 841.16 L118.00 841.52 L117.59 841.77 L118.04 841.80 L118.09 842.23 L117.74 842.34 L119.28 842.23 L119.63 842.79 L120.57 843.30 L120.25 844.66 L119.44 845.21 L120.44 844.73 L121.02 843.08 L120.83 843.03 L120.89 842.71 L121.08 842.87 L121.18 842.46 L121.84 842.53 L121.68 843.25 L121.89 842.66 L123.34 843.15 L123.14 843.38 L122.64 843.10 L123.62 845.03 L122.77 846.39 L121.52 845.75 L121.67 845.59 L121.54 845.52 L121.49 845.73 L121.12 845.35 L120.99 845.54 L123.46 846.86 L124.01 850.79 L124.96 854.60 L125.20 854.31 L125.57 854.43 L126.09 855.39 L126.17 859.05 L127.08 862.35 L127.72 862.92 L128.67 863.13 L128.48 862.92 L128.69 862.82 L127.53 861.44 L127.74 861.54 L127.78 860.95 L128.68 861.02 L127.31 859.84 L127.20 859.33 L127.44 858.96 L127.12 858.24 L127.34 857.97 L126.96 857.97 L126.35 856.07 L126.51 855.84 L127.20 855.92 L126.95 854.61 L127.30 854.03 L126.82 852.97 L127.51 852.83 L127.73 853.43 L129.16 853.95 L129.98 855.43 L131.35 856.10 L132.15 856.93 L132.62 858.17 L133.87 858.59 L134.46 859.66 L135.16 860.12 L134.77 861.42 L135.12 861.97 L135.03 863.82 L134.34 865.24 L135.27 865.79 L135.48 866.35 L135.39 867.08 L133.63 870.20 L134.77 871.18 L134.31 872.46 L134.43 873.21 L135.78 875.26 L135.06 876.52 L134.83 877.57 L135.37 876.62 L136.39 875.66 L140.26 875.05 L141.38 873.92 L142.12 873.79 L142.24 874.36 L142.42 873.98 L143.92 874.84 L144.09 875.24 L144.44 875.22 L144.44 875.92 L144.86 876.10 L144.78 876.66 L145.08 877.19 L145.90 877.49 L146.02 878.39 L145.71 879.02 L145.94 879.91 L145.79 880.37 L146.43 880.67 L146.94 881.56 L147.31 884.38 L147.13 884.07 L147.06 884.15 L147.34 884.80 L147.69 884.87 L149.59 886.92 L148.92 888.44 L148.09 888.87 L148.94 888.65 L150.12 886.53 L150.27 886.68 L149.46 888.36 L150.50 888.34 L147.17 894.35 L147.55 897.00 L147.19 897.48 L147.28 897.73 L146.18 898.47 L146.00 897.87 L146.00 898.30 L145.74 898.51 L144.74 898.28 L144.79 898.57 L144.26 898.87 L143.83 898.59 L143.77 899.04 L144.64 900.54 L145.39 900.22 L144.92 899.13 L145.38 898.89 L146.49 898.96 L147.85 898.19 L150.90 897.65 L152.46 897.01 L153.60 896.79 L154.96 897.59 L155.71 897.19 L157.55 897.22 L158.48 897.62 L159.58 897.43 L162.27 898.48 L164.01 898.38 L165.04 898.86 L164.73 900.05 L165.02 900.33 L164.28 900.03 L164.48 900.82 L167.27 903.42 L168.78 904.32 L169.17 904.36 L170.66 903.40 L172.21 903.35 L173.79 903.95 L174.64 904.94 L176.81 909.24 L177.27 912.75 L176.97 914.71 L176.51 915.72 L174.26 917.15 L174.27 918.91 L173.76 921.34 L174.48 924.17 L174.91 924.89 L175.73 925.21 L176.06 925.69 L175.75 927.82 L175.89 928.18 L176.83 928.04 L177.05 928.22 L176.99 928.74 L177.37 928.80 L177.14 929.15 L177.32 929.70 L176.42 929.93 L176.20 930.51 L177.62 931.96 L178.62 932.52 L178.65 933.38 L179.04 933.28 L179.58 933.76 L180.39 934.93 L180.72 935.91 L181.16 936.24 L181.06 936.87 L179.99 937.30 L179.83 937.91 L180.51 939.71 L182.19 938.62 L182.63 938.75 L182.88 939.26 L183.30 938.38 L183.67 938.22 L183.77 938.05 L183.35 938.30 L183.00 937.37 L183.36 937.70 L183.22 937.43 L183.87 936.92 L184.78 936.80 L184.94 937.07 L185.14 937.11 L185.02 936.92 L185.42 936.64 L186.11 936.89 L187.69 938.01 L189.31 940.45 L191.31 945.27 L191.23 945.78 L191.59 946.81 L191.16 947.72 L191.33 948.76 L190.87 949.01 L189.93 950.70 L189.99 951.31 L190.24 951.30 L190.57 951.87 L190.22 952.93 L191.02 953.87 L190.93 954.49 L190.69 955.15 L188.94 955.74 L188.93 956.14 L188.56 956.20 L188.78 956.40 L188.39 956.48 L188.38 957.16 L187.86 957.43 L188.07 957.57 L187.98 957.86 L187.64 957.83 L187.85 958.27 L187.72 958.55 L186.54 959.53 L186.83 959.90 L186.59 959.82 L186.65 960.21 L186.39 960.42 L186.92 960.99 L186.73 961.15 L186.94 961.43 L186.31 961.19 L186.71 962.62 L186.05 962.94 L186.17 963.17 L186.76 963.05 L187.16 963.60 L186.76 964.31 L186.88 964.52 L186.47 964.53 L187.40 965.23 L187.88 964.90 L188.33 965.14 L188.34 964.86 L188.71 965.47 L189.16 965.48 L190.03 964.96 L190.32 965.38 L190.96 965.55 L190.98 965.22 L191.29 965.27 L191.23 965.03 L191.88 964.38 L192.19 964.62 L192.79 964.25 L192.95 964.49 L194.02 963.56 L194.51 963.72 L195.26 963.30 L196.22 963.29 L196.64 963.69 L197.48 963.39 L198.37 963.81 L198.94 964.92 L197.81 966.53 L197.91 966.82 L197.58 967.13 L197.49 967.78 L196.90 968.50 L197.15 968.73 L196.85 969.04 L196.81 969.63 L197.36 970.17 L197.29 970.66 L198.35 971.19 L199.05 971.03 L199.23 971.54 L198.55 972.44 L197.49 973.00 L197.31 973.53 L196.36 973.68 L196.28 973.99 L195.69 974.12 L195.55 974.62 L196.58 975.65 L198.27 976.00 L197.92 975.33 L197.83 974.27 L198.68 974.75 L198.67 974.48 L199.37 974.41 L199.81 974.78 L200.11 974.34 L201.17 974.39 L202.47 973.96 L202.29 973.49 L201.68 973.27 L201.80 972.63 L201.52 972.05 L201.80 971.71 L201.27 970.68 L201.82 970.40 L201.59 969.85 L201.78 969.59 L202.16 969.60 L201.78 968.91 L202.44 968.76 L202.01 968.24 L200.75 968.47 L200.36 968.02 L200.32 967.28 L199.24 967.22 L199.07 966.45 L199.27 965.77 L199.07 965.52 L199.87 964.91 L199.37 964.24 L199.61 963.98 L199.50 963.70 L200.79 962.57 L201.67 962.39 L202.10 962.71 L202.45 963.80 L203.21 963.52 L204.14 964.13 L205.90 962.72 L205.82 961.83 L205.13 961.37 L205.40 960.89 L205.19 960.72 L205.23 960.29 L204.91 960.21 L205.10 959.37 L203.85 958.58 L204.26 957.62 L203.89 956.78 L204.68 956.54 L205.32 957.66 L206.35 958.53 L206.88 958.12 L207.45 958.35 L208.59 957.94 L209.23 958.07 L210.01 957.32 L210.09 956.88 L210.84 956.67 L210.75 956.10 L211.36 955.95 L211.65 955.18 L212.23 955.18 L212.90 954.30 L213.23 954.19 L214.77 955.31 L215.12 955.30 L215.45 955.00 L215.01 954.44 L215.86 954.04 L215.97 953.45 L216.33 953.57 L216.76 953.24 L216.77 953.84 L217.04 954.22 L217.91 953.78 L217.68 952.82 L218.66 951.77 L219.39 951.83 L220.35 952.71 L220.17 951.49 L220.94 951.32 L221.35 950.87 L220.25 951.37 L220.09 951.26 L220.38 950.91 L220.14 951.12 L220.26 950.78 L220.02 950.99 L220.14 950.66 L219.91 950.87 L219.84 950.56 L220.37 950.24 L220.86 950.77 L220.38 950.20 L220.09 950.26 L221.13 949.22 L222.03 949.06 L220.96 947.19 L221.13 946.72 L220.41 946.85 L219.94 946.05 L220.73 945.48 L221.23 946.45 L221.70 945.42 L221.36 946.75 L222.17 946.74 L223.04 947.38 L224.45 949.47 L226.68 950.58 L227.25 951.19 L228.97 951.67 L229.46 952.31 L231.69 953.65 L232.60 953.85 L233.53 955.05 L236.37 955.57 L236.48 956.18 L237.42 956.02 L237.62 955.59 L238.03 955.47 L238.69 956.11 L238.60 956.62 L239.41 956.60 L239.76 957.08 L239.35 957.81 L238.50 958.29 L238.57 958.77 L239.09 959.05 L238.68 959.15 L238.89 959.70 L238.45 959.73 L238.33 960.04 L239.54 960.64 L239.81 961.10 L239.65 961.45 L240.07 961.70 L240.28 962.37 L241.22 962.44 L241.27 962.96 L241.87 963.46 L242.24 963.19 L242.78 963.35 L242.95 963.83 L243.55 963.77 L243.61 964.78 L244.08 964.43 L244.14 964.87 L244.34 964.82 L244.32 965.46 L244.67 965.32 L244.31 965.85 L244.46 966.02 L244.03 966.20 L244.48 966.41 L244.84 966.10 L245.06 966.55 L244.92 967.32 L245.26 967.42 L245.45 968.02 L246.31 967.78 L245.75 967.05 L245.75 966.43 L246.00 966.45 L245.48 965.87 L246.07 965.36 L245.55 965.06 L245.51 964.60 L245.04 964.65 L244.94 963.69 L245.16 963.43 L245.18 962.69 L246.06 962.18 L245.88 961.36 L246.44 961.11 L246.31 959.84 L247.12 960.47 L247.08 961.87 L247.43 962.21 L247.16 964.28 L247.58 964.59 L247.56 964.97 L247.93 964.93 L248.12 964.06 L248.52 963.65 L249.25 963.92 L250.35 963.64 L251.27 963.87 L251.98 964.45 L252.05 964.83 L251.49 965.24 L252.77 965.81 L252.51 966.01 L252.99 965.74 L253.02 965.46 L253.69 965.43 L253.79 965.96 L254.24 966.12 L253.43 966.75 L253.61 967.10 L253.43 967.23 L253.61 967.50 L253.48 968.04 L254.30 968.09 L254.08 969.31 L254.51 969.35 L254.32 969.49 L254.76 969.79 L255.12 969.52 L255.57 969.85 L255.56 970.29 L255.21 970.71 L256.46 970.45 L257.06 969.41 L257.37 969.88 L257.73 969.78 L257.76 970.73 L258.00 971.07 L258.22 970.86 L258.42 971.29 L259.08 971.21 L259.25 971.06 L259.10 970.79 L259.76 970.93 L259.86 970.57 L261.06 970.98 L261.75 970.18 L262.04 970.29 L262.18 971.26 L262.27 970.67 L262.48 970.89 L263.54 970.56 L263.00 969.83 L263.55 968.91 L265.99 966.87 L266.86 967.15 L266.58 966.77 L266.89 966.24 L267.27 965.77 L267.94 965.63 L268.10 965.11 L268.72 965.03 L268.54 964.56 L269.63 963.55 L270.52 963.23 L270.91 963.84 L271.37 963.78 L271.70 963.42 L271.40 963.12 L271.59 962.71 L271.91 962.82 L271.91 962.56 L272.47 962.27 L272.95 962.91 L273.07 962.64 L272.68 962.23 L273.56 962.31 L273.92 962.02 L273.69 961.31 L274.39 961.34 L275.26 960.92 L275.17 960.15 L276.19 959.95 L276.21 959.45 L276.94 959.61 L276.71 959.00 L277.63 958.56 L277.90 957.03 L278.61 956.44 L278.77 955.70 L281.50 952.28 L283.81 950.14 L285.51 949.13 L286.97 947.80 L288.06 947.54 L287.66 946.95 L287.74 946.89 L288.15 947.49 L288.07 947.24 L288.59 946.22 L289.38 945.15 L292.71 942.90 L293.28 941.87 L295.07 940.69 L295.02 940.18 L295.29 939.80 L297.09 939.12 L297.35 938.24 L298.37 937.66 L299.90 935.48 L302.11 933.47 L303.33 931.76 L304.52 931.59 L305.59 930.95 L305.63 930.41 L305.26 930.16 L305.11 929.57 L304.59 929.46 L304.45 928.65 L304.76 928.01 L305.39 927.51 L306.47 927.50 L306.44 928.04 L306.85 927.63 L305.98 927.25 L306.00 926.81 L306.38 926.64 L306.27 926.20 L306.54 926.76 L307.54 926.81 L308.14 926.03 L309.03 925.92 L309.70 926.25 L310.00 926.80 L309.74 927.05 L308.18 927.09 L306.89 927.66 L306.40 928.29 L308.30 927.19 L309.74 927.07 L310.39 927.59 L310.64 928.97 L310.94 929.00 L311.19 928.35 L312.57 928.31 L312.74 927.93 L311.47 928.07 L311.08 927.37 L310.39 927.05 L310.32 925.81 L310.87 925.66 L310.67 925.33 L310.94 924.27 L311.59 923.34 L312.11 923.16 L313.12 923.45 L313.35 923.22 L313.17 922.81 L313.39 922.41 L314.42 921.78 L313.58 920.74 L313.44 919.50 L313.23 919.35 L313.40 917.45 L313.79 916.31 L314.31 915.65 L313.61 914.93 L313.54 913.90 L315.02 910.34 L315.75 909.86 L316.31 910.08 L315.96 909.71 L316.27 909.49 L316.61 909.77 L316.28 910.50 L316.50 910.33 L316.80 909.61 L316.35 908.96 L316.59 907.23 L316.97 906.44 L317.24 906.54 L317.17 906.35 L318.60 905.34 L319.11 902.94 L319.53 902.02 L319.52 900.35 L320.09 899.62 L319.89 898.74 L318.58 897.23 L316.89 895.96 L315.66 893.63 L315.77 893.38 L315.62 893.23 L315.55 893.56 L314.14 891.81 L313.96 891.46 L314.11 890.87 L313.23 889.50 L313.31 889.35 L313.29 889.06 L313.08 889.74 L312.66 889.08 L312.96 888.77 L311.18 887.57 L311.09 886.15 L311.73 885.83 L310.96 885.55 L310.56 883.68 L310.49 882.73 L311.12 880.33 L310.95 878.80 L310.54 878.11 L310.51 877.11 L310.30 877.23 L309.63 875.99 L309.91 875.59 L309.82 875.34 L308.78 873.85 L308.76 872.84 L310.35 870.17 L310.95 867.29 L310.83 867.03 L311.22 866.48 L311.13 866.12 L311.47 865.41 L311.46 863.95 L312.56 861.75 L314.05 860.02 L313.92 859.69 L314.34 859.37 L313.89 859.09 L314.13 859.15 L316.63 855.13 L317.92 853.39 L318.20 853.37 L317.90 852.99 L318.17 853.22 L318.02 852.97 L318.18 852.75 L323.00 847.04 L324.76 845.10 L325.04 844.99 L325.53 845.43 L325.75 845.50 L325.97 845.40 L325.57 845.37 L324.98 844.69 L325.17 844.59 L325.74 845.34 L325.34 844.68 L325.55 844.32 L328.50 842.07 L330.71 843.81 L333.24 845.13 L334.71 845.46 L333.50 845.13 L333.21 844.52 L333.40 843.93 L331.88 843.81 L330.40 842.70 L330.99 841.86 L330.30 840.79 L326.13 836.48 L323.92 836.47 L323.31 835.83 L323.31 834.51 L324.29 833.72 L324.31 833.13 L324.49 833.74 L324.99 833.74 L329.62 838.68 L330.17 839.07 L330.75 838.61 L330.25 839.15 L331.04 840.01 L331.87 840.65 L332.17 840.39 L332.73 841.08 L333.04 841.21 L333.51 841.23 L332.81 841.06 L332.32 840.51 L333.35 839.64 L332.76 838.81 L333.43 839.57 L333.98 839.11 L334.56 839.81 L333.38 840.67 L333.51 840.88 L334.61 840.64 L335.19 841.04 L334.58 839.28 L333.81 837.98 L334.32 837.56 L334.49 837.78 L333.77 836.49 L335.12 835.74 L336.54 839.45 L338.01 840.90 L339.52 841.45 L339.84 841.98 L339.92 841.95 L339.60 841.36 L338.05 840.85 L336.57 839.40 L336.18 838.32 L336.53 838.15 L336.27 837.52 L336.57 837.81 L336.07 836.39 L335.81 836.37 L336.09 836.10 L336.49 837.31 L336.90 837.37 L336.63 837.57 L336.89 837.42 L337.02 837.65 L336.74 837.82 L337.01 837.70 L337.18 838.00 L336.92 838.19 L337.39 838.10 L338.25 839.57 L338.60 839.36 L337.79 837.97 L338.30 837.67 L339.20 839.00 L339.15 838.79 L339.57 838.77 L338.70 837.28 L339.60 836.89 L339.88 837.08 L339.63 837.44 L340.17 837.84 L339.81 837.54 L340.02 837.24 L340.71 837.65 L340.49 838.03 L340.66 838.18 L340.98 837.67 L341.26 837.84 L340.67 838.48 L341.07 838.65 L340.59 839.71 L340.86 839.83 L341.24 838.99 L341.90 838.85 L342.83 839.28 L343.86 840.30 L343.06 840.78 L342.75 840.62 L343.43 840.98 L343.29 840.72 L343.88 840.37 L344.47 841.20 L343.83 841.93 L344.59 841.38 L345.13 842.13 L345.93 842.10 L345.13 842.43 L341.01 842.63 L339.44 844.31 L341.06 842.75 L345.13 842.52 L347.11 845.07 L347.32 845.00 L347.00 845.26 L347.07 845.62 L347.24 845.17 L347.89 845.80 L346.95 845.81 L348.00 845.92 L349.21 847.75 L350.11 848.24 L350.80 849.25 L351.42 849.06 L351.85 848.13 L352.32 847.87 L354.42 849.62 L354.40 850.03 L354.64 850.13 L355.05 849.85 L354.89 849.50 L355.06 849.11 L355.64 849.61 L356.14 849.58 L356.00 848.71 L356.65 848.31 L357.56 847.03 L357.25 846.27 L356.25 846.00 L356.32 845.53 L355.97 845.12 L356.24 845.60 L356.13 845.94 L355.47 845.65 L355.63 845.21 L355.37 845.32 L354.78 844.85 L355.07 842.99 L356.30 840.92 L359.08 837.88 L361.46 835.89 L364.60 834.03 L369.02 832.09 L374.39 831.20 L376.16 831.33 L378.50 832.57 L379.08 833.85 L379.70 834.38 L380.17 835.29 L381.41 835.93 L383.18 836.14 L386.20 835.69 L387.10 835.98 L388.37 836.96 L389.13 837.09 L389.39 837.46 L390.05 837.02 L391.73 836.83 L396.55 837.25 L397.18 837.65 L397.26 839.16 L398.02 839.80 L397.98 840.38 L398.15 840.00 L398.56 840.08 L398.17 839.85 L398.22 839.54 L398.79 839.60 L398.71 840.49 L398.52 840.63 L398.15 840.51 L397.74 840.52 L397.60 840.59 L398.62 840.70 L398.88 840.18 L399.75 840.42 L400.86 840.11 L401.35 840.56 L402.60 840.44 L403.96 840.78 L404.50 841.37 L404.55 842.08 L404.29 842.43 L404.62 843.48 L404.99 842.87 L405.42 842.84 L405.89 843.11 L406.25 843.89 L409.23 845.08 L409.94 846.94 L410.03 847.80 L410.90 848.58 L411.57 850.12 L413.51 851.50 L414.06 850.83 L414.48 850.76 L416.83 851.53 L419.07 852.92 L419.42 853.64 L418.84 854.24 L418.98 854.59 L420.24 854.77 L421.20 855.38 L423.31 857.59 L423.41 858.15 L422.80 859.24 L423.89 858.94 L424.46 859.48 L425.43 859.40 L426.10 860.19 L426.22 860.76 L425.39 862.96 L425.49 864.43 L426.34 864.64 L426.92 865.37 L427.37 865.09 L428.14 865.90 L428.88 864.54 L429.72 864.59 L430.40 864.93 L430.66 865.92 L431.00 865.84 L432.57 866.77 L433.34 868.20 L433.15 868.63 L433.75 868.67 L433.96 869.06 L435.49 868.15 L437.08 868.84 L438.20 869.87 L438.21 871.99 L439.21 873.43 L439.70 873.46 L440.08 872.47 L439.93 871.84 L440.36 871.32 L441.24 871.98 L442.05 872.06 L443.15 870.60 L444.56 870.23 L445.20 870.30 L446.64 871.36 L447.52 870.87 L448.08 871.42 L448.39 871.34 L448.26 870.61 L448.50 870.11 L450.03 869.29 L450.85 869.15 L451.75 869.48 L452.55 869.18 L452.90 868.43 L453.56 868.08 L454.78 868.33 L456.03 869.19 L456.86 869.08 L457.57 869.86 L459.20 869.86 L460.96 872.01 L461.19 872.61 L460.83 872.93 L461.27 873.79 L460.94 874.32 L460.35 874.19 L461.07 874.49 L461.13 874.86 L460.80 875.21 L460.44 875.10 L460.72 875.28 L460.37 875.54 L460.10 875.24 L460.32 875.00 L459.82 874.37 L460.00 873.98 L460.22 874.07 L460.04 873.71 L459.73 874.36 L460.04 875.62 L459.73 875.82 L459.24 875.61 L459.95 876.81 L459.91 877.94 L459.67 878.32 L458.93 878.29 L459.09 878.71 L458.88 878.83 L459.64 879.03 L460.22 879.70 L460.54 879.75 L460.68 879.38 L461.37 879.57 L461.33 880.22 L461.74 881.67 L461.85 881.43 L462.79 882.02 L462.81 883.33 L463.31 882.71 L463.66 882.77 L465.53 884.29 L465.05 882.99 L465.21 882.76 L463.83 880.16 L463.98 879.54 L464.58 878.89 L465.33 878.58 L465.40 878.28 L465.32 877.83 L464.14 877.58 L464.06 876.54 L464.46 875.54 L464.77 875.02 L465.15 875.02 L465.10 874.49 L465.84 873.23 L467.99 870.70 L468.62 870.79 L468.56 870.46 L469.08 870.16 L469.92 870.49 L469.80 869.33 L470.05 869.13 L470.82 869.51 L471.18 869.16 L471.53 869.45 L472.63 869.52 L472.81 869.19 L473.35 869.24 L473.72 868.32 L474.59 868.24 L475.33 868.82 L475.16 869.55 L476.05 869.56 L476.12 869.26 L475.66 868.85 L475.92 867.43 L476.53 867.34 L477.07 866.75 L476.92 866.58 L477.07 866.26 L477.75 865.57 L477.98 863.93 L478.74 863.42 L478.57 862.33 L479.15 861.07 L478.44 859.92 L478.74 859.42 L479.41 859.21 L478.97 857.73 L479.37 856.76 L480.00 856.57 L479.64 855.85 L479.69 854.52 L479.49 853.96 L480.25 853.31 L480.72 853.34 L480.83 853.69 L481.21 853.58 L481.43 852.93 L482.49 851.88 L482.23 851.40 L482.50 851.14 L481.95 850.63 L481.86 849.78 L482.13 849.46 L481.96 848.76 L481.23 847.82 L479.69 847.87 L478.54 847.31 L478.37 846.84 L477.99 846.83 L477.39 844.47 L477.56 841.83 L477.79 840.91 L478.12 840.62 L478.01 839.75 L478.40 839.14 L479.04 839.26 L479.43 838.60 L479.18 838.38 L479.14 837.72 L479.45 837.47 L479.43 837.10 L478.89 836.56 L478.79 836.03 L479.03 835.70 L478.97 835.17 L479.60 834.33 L479.23 833.96 L479.13 832.93 L478.94 832.83 L479.06 831.62 L479.68 829.16 L480.09 828.62 L479.85 828.20 L480.27 827.93 L479.66 827.45 L479.81 825.84 L481.52 820.62 L485.27 812.51 L488.36 807.73 L490.04 805.73 L491.38 804.69 L492.23 805.23 L492.73 805.04 L492.29 804.48 L492.57 803.81 L493.67 804.11 L494.02 803.65 L495.13 803.34 L496.38 804.05 L498.51 804.62 L498.80 804.38 L498.50 803.71 L499.11 803.01 L498.23 802.65 L498.75 801.65 L498.47 801.12 L497.47 800.94 L497.43 800.43 L497.64 800.29 L496.94 800.38 L497.00 799.95 L496.83 799.89 L495.89 800.15 L494.90 799.87 L495.03 799.30 L494.77 799.06 L495.08 798.52 L494.23 797.97 L492.68 798.15 L492.34 797.77 L492.36 796.87 L491.12 796.60 L491.18 796.08 L490.78 796.11 L490.03 795.11 L488.61 791.29 L488.23 788.52 L488.42 787.33 L487.89 787.52 L487.78 787.28 L488.09 786.99 L488.63 787.44 L487.95 786.62 L487.96 784.91 L488.31 784.32 L487.70 784.47 L488.01 783.97 L488.55 784.44 L487.98 783.61 L488.50 779.28 L489.02 777.22 L489.52 776.95 L489.01 776.48 L489.08 774.86 L490.99 767.96 L492.56 763.83 L492.93 763.28 L493.37 763.33 L493.12 762.72 L498.39 749.35 L499.14 748.38 L499.81 748.45 L500.26 747.72 L500.59 747.89 L500.79 747.85 L500.40 747.69 L501.06 747.47 L500.67 747.40 L500.67 747.22 L501.02 747.26 L501.01 747.09 L500.60 747.20 L500.44 746.76 L500.74 746.47 L500.65 746.77 L500.84 746.58 L500.79 746.82 L500.95 746.88 L501.11 746.72 L500.79 746.49 L500.92 746.20 L501.47 746.76 L501.27 746.98 L501.47 747.21 L501.27 747.21 L501.47 747.43 L501.14 747.92 L501.57 747.48 L501.59 746.75 L500.87 745.98 L500.86 745.64 L501.52 745.14 L501.66 744.67 L500.80 743.79 L500.57 743.09 L501.41 741.83 L501.88 739.63 L502.75 738.19 L502.25 736.45 L502.31 734.80 L501.66 733.68 L501.81 733.12 L501.59 732.29 L502.03 731.99 L501.99 731.25 L501.67 730.83 L501.76 730.41 L501.26 730.05 L501.54 729.85 L501.61 729.28 L501.94 729.40 L502.26 729.12 L502.59 727.51 L501.89 726.28 L502.07 725.91 L500.28 725.86 L499.64 725.41 L499.76 725.01 L499.59 724.81 L499.57 725.23 L499.08 724.81 L499.45 724.54 L499.85 724.72 L499.75 724.52 L498.79 724.54 L498.41 723.51 L498.29 722.12 L498.72 716.69 L500.16 711.30 L500.24 709.44 L500.75 706.77 L501.22 705.62 L501.94 704.76 L502.82 704.63 L503.38 705.10 L503.56 704.31 L504.32 703.53 L504.25 702.84 L504.96 702.41 L505.00 702.04 L504.30 701.97 L504.06 701.38 L504.25 699.58 L503.79 699.06 L504.84 697.57 L505.40 695.68 L505.90 695.76 L505.58 694.16 L505.96 692.32 L506.28 692.08 L505.98 690.38 L506.07 689.12 L505.68 687.80 L506.27 683.31 L505.33 680.02 L505.47 678.06 L504.82 677.06 L504.56 676.13 L504.73 674.88 L505.12 674.97 L505.10 674.71 L504.74 673.05 L503.89 671.83 L504.37 671.13 L504.28 670.35 L504.50 669.61 L503.41 666.62 L503.44 664.17 L503.03 663.04 L503.31 662.00 L503.59 661.76 L503.32 661.33 L503.89 660.12 L503.78 659.37 L504.46 657.82 L506.19 656.73 L507.04 656.54 L506.77 654.72 L507.31 653.73 L507.23 652.75 L507.73 651.78 L507.80 651.05 L508.27 650.63 L507.39 649.36 L507.51 647.43 L507.05 647.29 L506.79 646.52 L506.98 644.80 L507.31 643.94 L508.13 643.45 L509.40 643.14 L509.99 643.46 L509.87 643.17 L510.24 643.08 L510.44 642.63 L509.91 642.16 L510.20 641.75 L509.99 641.57 L510.04 641.04 L511.86 639.63 L511.81 639.36 L512.12 639.38 L511.86 636.77 L511.21 636.02 L511.13 635.48 L511.63 633.42 L511.52 629.98 L511.72 629.95 L511.48 629.64 L511.64 629.55 L511.22 629.50 L511.22 628.26 L511.37 627.53 L511.84 627.06 L511.55 626.85 L511.64 626.58 L512.10 626.16 L511.96 625.90 L511.44 626.15 L511.09 625.63 L511.08 624.24 L511.27 624.12 L511.16 624.09 L511.41 623.44 L511.55 623.33 L511.24 622.64 L510.83 622.49 L511.08 621.85 L510.72 621.30 L510.94 620.85 L510.61 620.33 L510.56 618.57 L509.56 617.21 L509.47 616.29 L509.85 610.40 L510.10 609.43 L510.51 609.19 L510.31 609.19 L510.17 608.44 L510.48 604.41 L512.35 595.36 L513.31 592.56 L513.71 592.07 L514.16 591.98 L513.74 591.85 L513.55 591.28 L514.14 588.72 L514.86 587.17 L516.49 585.03 L516.40 584.66 L517.01 584.78 L517.98 583.93 L518.16 582.52 L517.00 581.45 L517.01 579.73 L516.38 579.24 L516.00 579.65 L515.35 579.52 L515.17 578.79 L515.67 578.30 L514.59 577.88 L513.87 576.36 L513.76 574.96 L514.23 574.57 L514.26 573.43 L514.53 573.40 L514.74 572.89 L514.16 572.40 L514.17 571.69 L513.72 571.85 L513.38 571.37 L513.31 570.60 L513.56 570.52 L513.31 569.96 L513.55 569.64 L513.28 568.66 L513.40 567.69 L513.70 566.82 L514.09 566.66 L513.67 566.10 L513.89 565.29 L513.56 565.10 L513.57 564.69 L513.96 562.38 L514.56 560.69 L515.15 559.56 L515.47 559.39 L515.31 559.37 L515.59 559.00 L515.46 558.77 L516.53 557.29 L517.36 556.43 L518.41 555.88 L519.22 555.88 L519.20 556.32 L519.77 556.91 L520.47 556.93 L520.26 554.84 L520.94 554.42 L521.89 554.73 L522.31 555.74 L522.37 555.47 L522.85 555.58 L522.95 554.86 L523.42 554.94 L523.22 554.57 L523.48 554.33 L523.35 553.85 L523.84 553.38 L523.97 552.79 L523.94 551.11 L522.31 550.18 L522.36 549.87 L523.02 549.48 L522.99 549.21 L523.22 549.27 L523.02 548.80 L521.81 548.63 L521.55 548.00 L519.88 546.46 L520.72 547.34 L520.46 547.67 L520.97 547.71 L521.43 548.35 L521.32 548.72 L521.54 548.81 L521.52 548.98 L521.29 548.76 L520.58 549.07 L521.05 549.02 L520.82 549.75 L520.54 549.30 L519.05 549.95 L518.62 549.19 L519.97 548.06 L518.74 548.85 L517.95 548.69 L517.68 548.36 L517.96 548.17 L517.84 547.95 L517.59 548.38 L517.71 548.07 L517.46 548.24 L516.22 547.09 L515.31 545.33 L515.62 545.07 L515.55 544.83 L515.55 545.06 L515.16 545.17 L515.47 544.95 L515.15 544.92 L514.96 544.50 L514.51 540.62 L514.89 536.41 L515.37 534.45 L515.10 530.76 L515.95 529.27 L516.50 529.23 L516.56 528.34 L517.03 528.15 L516.66 528.27 L516.53 527.63 L517.21 527.31 L517.39 527.84 L517.14 528.00 L517.37 528.35 L517.53 527.79 L517.29 527.12 L518.01 526.02 L517.97 525.41 L519.08 524.34 L518.56 523.10 L518.80 522.22 L519.31 521.64 L519.17 521.37 L519.58 520.69 L519.63 519.72 L519.52 518.65 L519.04 517.93 L519.07 517.42 L519.88 515.81 L520.17 514.44 L520.79 514.31 L521.07 513.74 L521.44 513.64 L520.71 512.49 L520.81 511.17 L521.64 509.70 L522.19 509.43 L522.50 508.57 L523.56 508.42 L523.53 507.21 L523.93 506.86 L524.08 506.19 L524.84 505.36 L525.79 504.99 L525.65 502.74 L526.52 501.81 L526.51 500.87 L527.24 500.50 L527.34 498.41 L527.81 497.30 L527.48 496.65 L527.91 496.36 L528.12 495.79 L529.51 495.12 L529.95 494.10 L529.59 492.06 L529.03 492.43 L529.05 491.93 L529.56 491.32 L529.47 490.20 L529.23 489.89 L528.92 490.25 L529.02 490.48 L528.77 490.39 L528.84 489.86 L528.63 489.85 L528.00 488.38 L526.84 488.39 L527.00 488.12 L526.61 487.65 L524.24 486.67 L521.78 484.59 L520.04 484.28 L520.10 484.10 L518.60 483.42 L518.05 482.44 L517.07 482.17 L516.48 481.29 L516.09 481.57 L515.84 481.40 L514.62 480.10 L514.73 479.37 L514.07 478.76 L514.25 478.10 L512.80 476.36 L512.96 475.80 L512.31 475.70 L511.93 475.01 L511.62 475.13 L511.40 474.20 L510.73 474.00 L510.63 473.45 L510.19 473.20 L509.87 472.05 L508.98 471.61 L508.72 471.89 L507.52 469.20 L506.07 467.92 L505.20 467.52 L505.20 466.21 L504.97 466.11 L505.19 465.93 L504.70 465.46 L505.22 465.00 L505.28 463.59 L504.32 461.33 L503.93 460.97 L504.07 460.52 L503.51 460.20 L503.61 459.95 L503.21 459.94 L503.32 459.62 L502.66 458.73 L503.01 457.85 L502.50 456.54 L501.95 456.04 L501.98 455.42 L501.08 454.46 L500.18 454.25 L499.82 453.68 L499.51 453.70 L498.81 452.04 L498.88 451.43 L498.15 450.65 L497.87 448.81 L497.65 448.83 L497.54 448.43 L497.48 447.08 L497.16 446.18 L497.25 445.11 L496.92 444.12 L496.88 442.61 L496.55 441.84 L496.89 440.57 L496.78 439.84 L497.31 439.24 L496.93 436.89 L497.39 436.30 L497.45 435.18 L497.13 435.26 L496.66 434.74 L496.47 433.61 L496.60 432.92 L496.14 431.36 L496.31 431.09 L496.05 431.04 L496.13 430.30 L495.64 429.89 L495.86 429.12 L495.93 427.62 L495.67 427.49 L495.93 427.27 L495.64 427.21 L495.85 426.95 L495.66 426.42 L495.97 424.04 L496.65 422.30 L496.43 421.57 L496.59 420.77 L497.38 418.94 L497.87 416.60 L498.15 416.23 L498.09 415.62 L498.53 414.49 L499.26 413.82 L499.78 412.03 L500.09 411.89 L500.23 412.24 L500.50 412.28 L500.16 411.88 L500.61 411.86 L500.74 412.69 L500.65 411.64 L501.17 410.99 L500.94 410.88 L501.02 410.65 L502.86 407.58 L503.90 406.58 L504.39 405.41 L505.27 404.70 L506.11 402.90 L506.91 401.85 L508.19 399.24 L508.14 398.24 L508.50 397.93 L508.67 397.24 L509.88 396.50 L510.49 395.56 L512.03 395.39 L512.41 394.71 L511.68 393.79 L512.54 392.70 L513.09 392.83 L512.57 392.28 L513.27 392.65 L513.24 392.99 L513.36 392.64 L512.79 392.28 L512.80 392.03 L514.51 389.50 L522.14 381.16 L523.27 380.35 L523.87 380.77 L523.28 379.95 L524.10 380.67 L523.88 380.99 L524.12 380.81 L524.15 380.62 L523.55 380.06 L523.77 379.62 L526.94 376.46 L529.07 374.70 L531.26 373.67 L531.23 373.33 L531.91 372.86 L535.76 372.88 L536.51 371.47 L537.34 370.91 L538.08 369.30 L539.42 368.50 L539.42 367.83 L539.14 367.33 L539.33 367.26 L539.39 365.40 L540.86 363.62 L541.48 361.72 L541.16 360.24 L541.56 359.82 L541.67 359.07 L541.01 358.76 L540.90 358.28 L541.61 357.54 L541.54 356.81 L541.07 356.18 L541.09 355.73 L541.36 355.50 L541.18 355.22 L542.54 354.04 L542.35 353.65 L542.80 353.46 L542.56 353.24 L542.73 352.90 L543.31 352.75 L543.07 352.37 L543.51 352.26 L543.73 351.11 L544.01 350.68 L544.54 350.54 L544.42 350.08 L545.79 348.92 L545.62 348.67 L545.88 348.84 L547.19 348.31 L547.94 349.23 L548.44 348.85 L547.94 348.29 L547.98 347.41 L547.67 347.26 L547.71 346.67 L548.43 346.01 L548.64 345.10 L549.13 344.79 L549.24 343.89 L549.79 343.38 L549.68 342.80 L550.13 341.81 L550.14 341.12 L550.84 340.13 L550.78 339.71 L551.83 337.45 L553.12 333.56 L553.85 332.35 L554.03 331.52 L554.67 330.71 L554.93 329.03 L555.61 328.15 L556.07 328.01 L555.65 327.54 L556.21 326.28 L555.84 325.94 L556.30 324.96 L556.82 324.56 L556.38 323.00 L556.90 322.78 L557.38 320.94 L557.99 320.71 L557.48 319.78 L557.83 319.02 L557.09 318.13 L557.81 316.93 L557.64 316.28 L558.00 315.63 L557.88 314.79 L558.33 314.38 L557.03 312.89 L556.16 312.64 L556.00 312.22 L555.41 312.32 L555.27 311.84 L554.43 311.71 L554.20 310.80 L552.49 311.08 L551.27 309.90 L549.63 309.16 L548.32 308.05 L547.07 305.63 L547.06 304.99 L547.79 303.97 L547.80 303.35 L547.34 302.19 L547.51 300.56 L546.62 298.71 L546.70 297.32 L546.39 296.90 L545.55 296.76 L544.79 296.18 L544.58 295.69 L544.71 295.25 L544.23 294.74 L544.28 294.07 L543.69 293.55 L542.88 293.00 L542.35 293.25 L541.76 292.98 L541.07 293.15 L539.23 291.95 L536.80 289.20 L535.33 286.71 L534.75 285.19 L534.60 283.11 L534.76 282.66 L535.18 282.53 L535.16 282.07 L535.81 281.83 L534.66 281.79 L534.49 281.06 L535.25 280.41 L536.36 282.07 L535.91 280.97 L535.20 280.22 L535.41 279.92 L534.66 279.61 L534.49 278.86 L533.51 278.19 L532.76 277.07 L532.23 275.44 L531.76 272.15 L531.92 268.99 L532.40 266.25 L532.88 265.14 L534.33 263.92 L533.95 262.43 L534.01 260.98 L534.50 257.99 L535.34 257.35 L535.42 256.66 L534.47 256.25 L534.69 255.26 L534.22 254.46 L534.22 253.90 L533.26 252.91 L533.21 251.31 L532.63 250.74 L532.20 249.71 L531.07 248.77 L530.78 247.49 L530.57 247.70 L530.62 248.45 L529.48 248.58 L528.41 247.72 L528.15 246.37 L527.19 246.22 L526.71 246.60 L526.06 246.26 L524.63 244.45 L523.69 242.17 L523.64 241.15 L523.92 240.28 L523.26 239.16 L523.00 237.00 L523.42 236.12 L524.73 235.25 L523.21 234.18 L523.13 232.89 L523.57 232.21 L522.64 231.37 L522.66 230.86 L522.95 230.78 L522.20 230.61 L522.34 231.12 L522.12 231.22 L522.00 230.45 L521.55 230.32 L522.47 230.33 L523.24 230.79 L522.62 230.30 L522.77 230.03 L523.36 230.02 L523.85 228.97 L522.78 227.93 L524.45 227.15 L524.51 226.20 L523.88 225.97 L523.64 225.07 L522.53 224.62 L521.68 224.66 L521.26 224.17 L520.29 224.08 L519.68 224.60 L519.43 224.48 L519.37 223.27 L518.62 222.88 L518.85 222.44 L517.97 221.65 L516.94 221.43 L516.76 220.46 L517.24 219.77 L516.50 219.64 L515.59 220.07 L515.09 219.80 L513.73 218.18 L513.68 217.65 L512.60 216.85 L512.76 216.11 L512.23 215.31 L512.32 214.35 L511.88 214.99 L511.58 214.58 L511.87 214.34 L511.54 214.24 L511.89 213.94 L511.89 214.22 L512.17 213.98 L512.61 214.32 L512.55 214.09 L511.98 213.80 L511.18 213.73 L510.43 212.48 L510.10 208.35 L510.40 206.45 L511.22 204.56 L512.20 203.41 L513.35 202.89 L514.55 203.20 L514.82 204.09 L515.59 203.94 L515.63 203.30 L515.80 203.40 L516.00 202.86 L516.24 202.93 L516.64 202.04 L516.42 201.42 L516.55 201.18 L515.50 200.23 L515.88 199.78 L515.33 199.96 L515.38 200.63 L514.80 200.27 L514.99 199.71 L515.56 199.82 L515.56 199.52 L515.83 199.48 L515.56 198.94 L514.16 198.18 L514.21 197.93 L513.60 198.01 L513.24 197.38 L513.43 195.87 L513.81 195.22 L514.37 194.88 L515.14 195.12 L515.93 194.11 L514.77 193.86 L514.64 193.10 L514.87 192.48 L515.74 191.72 L516.99 192.11 L518.21 191.54 L518.69 191.95 L518.44 192.75 L518.63 193.05 L519.16 193.28 L519.60 192.96 L519.84 193.64 L520.32 192.96 L520.96 192.92 L521.46 193.30 L521.36 193.79 L521.57 193.99 L521.84 194.05 L521.68 193.93 L522.06 193.54 L523.23 193.48 L525.20 192.59 L525.31 191.95 L525.70 191.87 L525.74 191.23 L526.73 191.33 L526.85 190.63 L527.20 190.56 L526.87 190.15 L527.44 189.41 L527.35 188.97 L527.85 188.90 L526.84 188.68 L526.53 189.97 L525.25 190.66 L523.77 189.52 L523.25 188.54 L522.64 189.06 L521.93 188.82 L521.35 189.24 L521.17 190.05 L520.69 190.07 L520.23 189.18 L520.21 188.60 L519.49 188.06 L519.31 188.28 L518.92 188.07 L518.96 187.37 L517.47 188.11 L517.10 188.03 L516.88 187.13 L515.73 185.80 L515.37 184.35 L514.99 184.14 L515.47 183.72 L513.39 182.13 L512.50 182.24 L512.30 181.86 L511.60 182.46 L511.56 182.87 L511.15 182.90 L510.98 183.28 L510.75 183.10 L510.94 183.36 L510.82 183.85 L509.32 185.44 L508.52 185.29 L508.25 184.15 L506.97 183.87 L506.24 184.12 L505.14 183.10 L504.62 182.20 L505.57 180.10 L505.35 179.45 L504.84 179.38 L505.17 179.18 L505.04 178.40 L505.85 177.43 L506.48 177.42 L506.86 177.05 L506.56 176.44 L505.55 176.58 L505.50 176.35 L505.79 176.20 L505.60 176.17 L505.69 175.90 L505.31 176.20 L504.73 175.76 L505.17 175.59 L505.05 175.05 L505.25 174.76 L504.11 174.95 L503.53 174.36 L502.62 174.72 L502.56 175.06 L502.87 175.11 L502.69 175.54 L503.08 175.37 L503.79 175.76 L503.10 175.87 L502.65 176.69 L502.15 176.79 L501.87 177.44 L501.31 177.23 L501.15 176.66 L501.37 176.12 L501.01 175.29 L500.62 175.45 L499.75 174.86 L499.68 174.55 L499.98 174.48 L499.61 174.17 L499.60 173.82 L500.15 173.91 L499.63 173.57 L499.58 172.96 L499.00 173.10 L497.83 172.69 L497.44 172.88 L497.38 173.39 L497.10 173.39 L497.11 173.09 L496.61 173.08 L496.53 172.79 L497.40 171.71 L496.74 171.31 L495.94 171.45 L495.70 171.22 L495.83 170.96 L493.49 170.81 L493.21 169.54 L493.40 168.82 L494.14 168.77 L494.82 168.27 L495.53 168.77 L496.25 168.15 L496.35 167.34 L497.06 167.27 L497.20 166.76 L496.93 166.15 L497.23 165.85 L497.62 166.00 L498.26 165.38 L498.14 164.95 L498.54 164.92 L498.72 164.31 L498.56 163.79 L499.34 163.64 L499.84 162.91 L500.37 162.86 L500.70 162.42 L500.50 162.44 L500.40 161.95 L501.24 161.39 L501.99 160.05 L502.48 159.74 L502.18 158.83 L500.69 159.02 L500.00 159.56 L498.85 159.02 L498.40 159.37 L498.46 159.65 L498.08 159.76 L497.66 159.16 L496.75 159.28 L496.47 158.99 L496.14 159.33 L496.07 159.06 L495.40 158.97 L495.40 157.91 L495.00 157.51 L494.28 157.60 L494.78 158.74 L493.78 158.70 L494.17 159.47 L493.88 159.62 L494.10 159.76 L493.59 159.66 L493.64 159.07 L493.47 159.25 L492.82 158.83 L491.72 159.46 L491.73 159.76 L491.31 159.70 L490.68 161.15 L490.75 162.10 L490.48 162.67 L489.16 163.24 L489.30 163.44 L489.04 163.98 L488.09 164.39 L487.08 164.11 L486.55 164.33 L486.27 165.42 L486.58 165.58 L486.44 166.14 L485.07 166.93 L483.07 166.27 L482.88 165.84 L481.72 165.42 L480.10 163.59 L479.97 163.06 L480.21 162.42 L481.08 162.27 L481.94 161.28 L481.86 160.98 L482.43 160.61 L481.78 160.93 L481.41 160.74 L480.55 161.70 L479.43 162.01 L478.35 161.13 L478.67 159.89 L477.88 159.96 L477.57 159.12 L476.83 158.56 L476.37 159.58 L475.78 159.44 L474.74 159.80 L474.40 158.87 L474.08 158.65 L473.17 159.19 L472.38 158.99 L471.22 159.62 L470.53 159.62 L469.67 160.50 L469.22 160.33 L468.71 160.90 L468.17 160.76 L467.96 161.17 L467.35 161.27 L466.89 160.89 L466.93 159.64 L466.84 159.54 L466.56 159.54 L466.26 160.05 L466.08 160.17 L466.04 160.16 L466.00 160.20 L465.92 160.19 L465.87 160.15 L465.91 160.22 L466.06 160.23 L466.82 159.58 L466.88 160.26 L466.57 160.26 L466.57 160.61 L465.74 160.37 L465.50 160.67 L465.40 160.43 L465.63 160.33 L465.53 159.97 L465.39 160.31 L464.48 160.80 L463.71 160.62 L463.93 160.97 L463.62 161.38 L463.15 161.29 L462.89 161.66 L462.45 161.68 L461.58 161.39 L461.08 162.02 L460.44 161.90 L460.40 162.20 L460.12 162.26 L459.69 161.98 L460.02 161.90 L460.02 161.67 L459.57 161.82 L458.94 161.54 L458.90 161.25 L459.62 161.04 L459.67 160.53 L459.44 160.31 L459.76 160.28 L459.20 159.48 L458.16 159.94 L457.91 159.70 L456.58 160.11 L458.02 159.05 L458.75 158.86 L459.22 158.24 L460.10 158.16 L460.01 157.70 L461.11 158.06 L461.19 157.86 L460.50 157.60 L460.46 157.28 L461.00 157.48 L460.48 157.26 L460.65 157.03 L461.17 157.13 L461.19 157.41 L462.89 157.48 L463.37 157.92 L465.78 157.91 L465.80 157.54 L465.05 157.50 L465.07 157.15 L465.70 157.18 L465.71 156.91 L462.86 156.57 L461.37 156.77 L460.76 155.95 L458.96 155.77 L459.14 155.06 L460.49 154.91 L461.02 155.58 L462.26 154.82 L462.57 154.95 L462.54 155.31 L463.46 154.65 L463.89 155.01 L463.77 154.67 L464.68 154.27 L464.78 153.73 L464.96 153.65 L464.77 154.15 L464.93 154.20 L465.66 153.45 L466.40 153.68 L466.76 152.89 L466.80 153.36 L467.51 153.66 L468.74 153.33 L469.70 155.82 L470.18 156.47 L472.27 156.35 L475.26 155.00 L475.73 155.85 L475.60 156.20 L476.17 156.20 L475.94 156.43 L476.07 156.60 L476.60 156.60 L477.10 157.21 L479.25 156.49 L479.58 156.62 L480.06 155.79 L480.35 155.95 L481.10 155.61 L481.07 154.61 L480.73 154.25 L481.17 153.22 L480.72 152.90 L479.86 153.27 L479.07 152.59 L478.78 150.66 L479.26 149.46 L480.25 149.46 L480.05 148.81 L480.34 148.33 L481.32 147.89 L481.90 148.49 L482.29 148.33 L481.82 147.61 L482.17 147.07 L481.77 145.62 L482.55 144.92 L483.18 145.40 L483.27 144.59 L482.90 144.27 L481.73 144.82 L481.92 144.29 L481.04 143.58 L481.72 143.71 L482.16 144.51 L482.37 144.52 L482.15 143.84 L483.07 143.77 L483.05 143.23 L483.68 142.58 L484.71 142.54 L485.11 143.12 L485.72 141.71 L485.42 141.22 L485.55 140.90 L486.57 140.52 L486.71 139.76 L485.08 139.15 L485.17 138.70 L484.79 138.42 L484.92 137.85 L483.93 137.72 L483.88 137.37 L484.25 137.09 L483.55 136.71 L483.43 136.13 L483.83 135.81 L483.00 135.10 L483.80 134.80 L483.98 134.41 L483.31 133.57 L483.98 133.12 L484.59 133.47 L484.00 132.22 L484.46 131.59 L485.06 131.83 L485.27 131.50 L485.05 131.28 L485.44 130.92 L486.67 130.76 L487.30 131.79 L487.57 131.51 L488.35 131.55 L487.69 130.70 L488.68 130.09 L488.36 128.93 L489.10 128.84 L489.42 129.13 L489.48 128.40 L489.76 128.51 L489.78 128.15 L490.00 128.42 L489.80 128.62 L490.03 128.44 L489.80 128.10 L489.94 127.85 L490.74 128.15 L491.38 127.89 L491.53 127.54 L491.19 126.54 L491.50 126.16 L491.93 126.24 L492.05 125.65 L492.72 125.53 L493.11 126.05 L494.13 125.88 L495.17 126.38 L495.50 127.55 L495.27 127.24 L495.27 127.46 L495.63 128.20 L495.37 128.25 L495.41 128.52 L495.70 128.19 L495.76 128.31 L495.64 128.37 L495.67 128.51 L495.83 128.31 L495.88 128.54 L495.24 128.53 L495.44 128.81 L495.20 129.08 L495.62 128.89 L495.38 129.42 L495.75 129.14 L495.35 129.88 L496.02 129.13 L496.60 129.16 L499.01 131.55 L501.36 132.23 L502.95 131.96 L503.07 132.99 L504.38 133.31 L505.08 132.91 L505.10 132.44 L504.60 132.01 L505.47 131.64 L506.23 130.88 L506.31 130.24 L506.76 129.73 L508.26 128.99 L507.96 127.79 L507.02 127.43 L506.94 126.92 L506.42 126.53 L506.42 125.89 L505.73 125.28 L503.68 125.40 L501.54 126.64 L501.36 126.31 L499.98 126.60 L497.99 126.15 L497.38 125.10 L496.71 125.26 L496.23 124.91 L495.58 125.20 L495.17 124.63 L495.33 124.14 L495.10 124.07 L494.97 123.19 L494.18 123.50 L494.17 122.80 L493.69 123.07 L493.04 122.32 L493.00 122.69 L492.52 122.76 L492.45 121.52 L492.04 121.37 L492.13 120.88 L491.62 120.65 L490.99 119.58 L489.96 119.85 L489.62 119.31 L489.18 119.37 L489.23 118.83 L488.89 118.64 L488.69 118.83 L488.74 119.55 L488.24 119.52 L487.57 118.90 L487.58 118.30 L486.93 117.97 L487.10 119.39 L486.78 119.84 L486.17 119.79 L485.95 120.39 L486.22 121.28 L485.84 121.57 L485.77 121.30 L484.82 121.07 L484.59 121.66 L484.81 122.26 L484.40 122.75 L483.95 122.83 L483.21 122.30 L482.64 121.52 L482.28 120.42 L481.44 120.99 L482.22 122.41 L481.79 122.72 L482.23 124.14 L482.04 125.59 L481.26 125.95 L480.92 125.82 L480.76 125.08 L480.41 125.12 L480.55 125.00 L480.62 124.52 L481.27 123.90 L480.64 123.77 L480.48 124.20 L480.19 124.21 L480.16 124.54 L480.51 124.85 L479.98 125.20 L479.08 124.41 L479.16 124.13 L479.59 124.09 L479.43 123.06 L478.62 123.52 L477.87 123.22 L477.63 124.41 L477.21 124.66 L477.19 124.97 L476.63 125.11 L476.54 125.45 L476.20 125.26 L476.79 126.20 L476.37 126.45 L476.27 126.17 L476.52 126.00 L476.23 125.45 L475.96 125.69 L475.26 125.54 L473.78 124.25 L473.93 123.56 L474.49 122.87 L474.10 122.58 L474.11 122.45 L474.60 122.86 L475.17 121.92 L475.51 119.43 L475.89 119.08 L475.94 118.62 L476.79 118.39 L476.94 118.15 L476.72 117.92 L476.76 117.30 L477.54 116.88 L477.84 116.22 L477.69 115.87 L476.13 115.57 L475.28 114.96 L475.38 114.65 L476.28 114.28 L476.57 113.79 L477.16 113.72 L477.54 113.20 L477.07 112.90 L477.30 112.80 L476.92 112.16 L476.62 112.08 L476.04 112.61 L475.63 112.49 L475.43 112.02 L474.98 112.32 L475.33 112.91 L474.92 113.48 L475.16 113.86 L474.80 114.10 L475.03 114.35 L474.79 114.70 L472.60 114.42 L471.89 114.42 L471.70 114.84 L471.44 114.65 L471.63 114.88 L471.53 115.20 L472.01 114.92 L472.86 115.10 L472.83 115.44 L472.43 115.69 L472.59 115.81 L472.08 115.56 L472.19 115.72 L471.57 116.02 L471.65 116.36 L471.38 115.99 L471.43 115.30 L470.71 115.45 L470.21 115.13 L469.45 115.61 L469.72 115.90 L469.64 116.18 L468.50 116.51 L467.85 115.99 L468.22 115.47 L467.87 114.78 L466.81 115.12 L466.47 115.69 L466.93 116.60 L466.48 117.18 L466.72 117.42 L466.62 118.17 L466.33 118.41 L465.36 118.16 L464.89 118.77 L466.50 119.10 L466.84 118.74 L467.42 119.47 L467.21 120.27 L466.58 121.10 L466.04 121.22 L465.91 122.63 L465.04 123.11 L463.68 122.92 L462.37 124.00 L460.88 123.87 L461.38 124.94 L461.26 125.33 L461.31 124.81 L460.78 124.76 L461.16 124.57 L460.37 123.66 L460.47 123.36 L459.75 123.76 L459.97 122.87 L459.55 122.84 L460.17 122.64 L460.55 122.05 L460.74 120.73 L462.88 119.84 L463.79 120.20 L463.21 119.57 L462.97 118.46 L464.30 116.22 L464.21 115.84 L464.76 114.41 L465.94 114.46 L465.96 113.97 L465.86 113.68 L465.87 114.37 L465.35 114.43 L465.47 113.41 L465.00 112.96 L465.74 112.83 L466.03 113.60 L466.34 113.96 L465.81 112.80 L465.12 112.35 L465.27 111.04 L465.88 110.98 L466.35 110.10 L465.92 109.63 L466.15 109.04 L465.64 108.68 L465.63 108.13 L465.89 107.79 L465.30 107.52 L465.68 106.94 L465.32 105.99 L466.11 105.67 L466.25 104.82 L466.78 104.37 L468.58 105.17 L468.80 104.48 L467.76 103.60 L468.02 102.67 L468.39 102.34 L469.54 102.26 L470.01 103.07 L470.62 102.73 L470.12 102.29 L470.83 101.12 L470.43 100.88 L468.96 101.41 L467.66 100.62 L467.09 99.64 L467.37 97.62 L468.09 97.27 L468.47 96.53 L468.44 95.62 L468.77 95.27 L468.49 94.95 L468.57 94.59 L469.63 93.94 L470.18 92.18 L470.77 91.66 L470.65 91.23 L471.15 91.46 L471.31 91.27 L472.16 92.07 L471.73 92.06 L471.86 92.34 L471.19 93.31 L471.59 93.63 L471.07 93.85 L471.04 94.19 L471.55 94.66 L472.70 94.63 L473.55 96.19 L474.42 96.00 L474.11 95.70 L474.25 95.14 L476.43 94.27 L476.62 94.03 L476.24 93.77 L476.55 93.33 L476.88 93.62 L477.30 93.40 L477.47 92.97 L477.25 92.56 L477.57 92.23 L477.06 91.52 L478.09 91.17 L477.92 90.80 L478.71 88.93 L478.14 88.70 L478.26 87.81 L478.86 87.24 L480.23 87.44 L479.48 86.53 L479.70 86.08 L479.01 86.41 L477.58 86.36 L477.61 85.51 L479.05 84.57 L479.03 84.12 L479.35 83.78 L479.17 83.62 L479.49 83.38 L478.84 83.11 L479.08 82.34 L478.74 82.21 L478.69 81.53 L478.86 81.53 L478.61 80.91 L477.85 80.02 L476.92 79.73 L476.93 79.39 L476.67 79.43 L476.79 80.09 L476.53 80.20 L476.25 80.04 L476.13 79.47 L475.67 79.37 L475.35 79.73 L474.78 79.64 L474.19 80.58 L473.85 80.47 L472.71 82.24 L471.87 82.18 L471.63 81.47 L470.71 81.64 L470.51 81.25 L470.71 81.01 L470.32 80.62 L470.43 80.27 L470.21 80.01 L470.61 79.49 L470.56 79.07 L469.89 78.79 L469.72 78.36 L470.47 77.88 L471.25 76.24 L471.82 76.11 L472.13 74.79 L472.33 74.76 L472.23 73.73 L471.72 73.61 L471.54 73.18 L471.30 73.46 L470.55 73.13 L470.20 72.70 L469.43 73.00 L469.57 74.47 L468.68 73.41 L466.40 73.97 L466.14 73.63 L466.34 73.45 L466.11 73.28 L466.23 72.80 L466.85 73.17 L467.83 72.93 L468.06 73.37 L467.87 72.86 L467.33 72.57 L467.43 72.15 L469.21 71.82 L469.49 72.27 L469.91 72.24 L469.72 71.85 L469.96 71.76 L468.56 70.66 L468.53 70.21 L467.44 69.41 L467.56 69.30 L466.92 69.50 L466.38 69.13 L466.34 68.79 L467.08 68.49 L467.19 67.49 L467.54 67.43 L467.40 67.30 L467.79 66.68 L467.13 66.17 L467.04 65.69 L466.52 65.49 L466.33 64.68 L465.44 64.90 L464.44 64.64 L463.75 65.31 L462.61 64.93 L462.50 65.32 L463.52 66.10 L462.89 66.17 L463.08 66.54 L462.79 66.91 L461.57 66.55 L461.11 66.89 L463.39 68.27 L463.14 68.58 L464.61 70.67 L463.31 69.87 L462.93 70.49 L462.11 70.51 L462.02 70.90 L462.44 71.22 L461.48 71.59 L461.22 71.37 L461.40 71.07 L461.18 70.82 L460.57 70.79 L460.41 70.35 L459.42 70.31 L459.56 70.04 L459.28 69.95 L459.11 69.43 L458.57 69.93 L458.19 69.73 L457.58 70.13 L457.58 69.78 L457.28 69.81 L456.60 70.38 L456.83 70.39 L456.93 70.86 L456.73 70.90 L456.71 71.33 L457.23 72.71 L457.57 72.83 L457.59 72.95 L456.69 73.15 L456.94 72.57 L456.40 71.70 L456.56 70.58 L455.89 69.81 L454.35 69.60 L454.17 69.24 L454.40 69.04 L453.90 68.81 L452.93 69.92 L453.11 70.17 L452.61 71.17 L451.65 71.04 L451.27 69.83 L450.71 69.98 L450.74 70.59 L449.97 71.04 L449.35 70.96 L448.92 70.21 L448.23 70.03 L447.51 71.37 L447.38 72.83 L447.56 73.26 L448.30 73.25 L448.57 73.67 L448.89 73.35 L449.90 73.60 L450.04 74.07 L449.77 74.25 L449.78 74.71 L449.21 74.78 L448.65 75.31 L448.86 75.90 L449.60 76.12 L449.49 76.68 L449.75 76.99 L449.37 77.26 L449.08 76.86 L448.49 77.19 L447.91 76.73 L447.58 77.32 L446.86 77.51 L447.10 77.67 L446.58 78.61 L446.59 80.27 L444.62 81.78 L444.30 82.31 L444.42 82.88 L444.11 83.71 L442.92 84.03 L442.83 84.43 L443.22 85.04 L442.81 86.45 L443.10 88.22 L442.71 88.75 L442.99 87.68 L442.61 88.44 L442.39 87.36 L442.17 87.35 L442.35 88.31 L442.01 88.07 L442.10 87.58 L441.51 87.22 L441.70 87.14 L441.34 87.10 L441.24 87.65 L441.04 87.47 L441.17 86.90 L441.83 87.03 L442.02 86.72 L440.45 86.39 L440.21 85.82 L440.31 83.68 L440.58 83.43 L441.39 83.55 L441.36 84.32 L441.46 83.72 L441.39 83.38 L441.16 83.11 L441.23 83.47 L440.59 83.37 L440.55 82.54 L440.09 82.06 L440.38 81.34 L440.11 80.56 L440.53 79.66 L440.31 79.38 L440.36 78.32 L439.79 76.76 L441.03 75.59 L440.64 75.24 L440.79 74.82 L441.49 74.81 L441.20 74.26 L441.83 73.04 L441.56 73.40 L440.83 73.25 L439.74 73.82 L438.70 72.67 L439.01 71.68 L438.83 71.22 L439.05 70.96 L438.00 71.38 L437.01 70.23 L436.66 68.96 L437.21 68.38 L437.82 68.47 L437.89 68.14 L437.63 66.76 L436.77 66.47 L436.86 64.96 L436.00 65.07 L435.67 65.45 L434.49 65.30 L434.34 65.05 L433.85 65.39 L433.07 64.91 L430.55 65.06 L429.46 64.38 L429.59 63.46 L430.39 63.25 L430.74 63.45 L430.70 62.41 L431.98 62.27 L432.08 61.67 L432.53 61.30 L433.09 61.73 L434.43 61.05 L434.57 60.74 L434.11 60.04 L434.46 59.80 L434.52 60.05 L435.06 58.83 L434.80 58.57 L435.10 58.22 L435.15 57.59 L434.95 56.35 L434.35 56.62 L433.78 55.86 L431.96 56.45 L431.11 56.25 L430.76 56.68 L429.80 56.91 L430.09 58.20 L429.51 57.22 L428.30 57.35 L428.56 57.05 L427.45 56.64 L427.56 56.25 L427.32 55.93 L425.44 54.67 L424.42 55.87 L423.85 55.80 L423.73 55.32 L423.66 56.09 L423.02 56.08 L423.10 55.55 L423.49 55.13 L423.90 55.18 L423.64 55.09 L423.70 54.52 L423.21 54.75 L423.13 54.00 L422.86 53.78 L422.93 53.28 L422.09 52.39 L421.37 52.37 L420.55 52.80 L420.21 54.03 L418.70 54.08 L418.39 52.94 L417.57 51.64 L417.69 50.56 L417.05 50.07 L417.11 49.25 L417.50 48.66 L417.65 47.79 L417.38 47.31 L417.44 46.37 L417.09 45.91 L417.20 45.18 L416.80 44.55 L415.67 44.99 L415.20 44.76 L415.10 45.11 L415.33 45.26 L414.65 46.11 L414.34 45.91 L413.89 46.42 L413.13 46.20 L413.25 45.91 L412.82 45.44 L412.84 44.59 L412.25 44.37 L411.47 44.70 L411.21 45.17 L410.13 45.10 L409.01 45.65 L409.32 47.03 L408.74 47.35 L409.00 47.74 L408.43 47.66 L408.38 48.08 L407.62 48.56 L407.57 49.17 L406.76 49.27 L406.62 49.57 L408.77 51.02 L409.38 50.68 L409.55 51.22 L409.02 51.59 L408.39 52.76 L407.06 53.35 L405.97 52.43 L405.47 51.36 L404.42 51.07 L403.18 49.91 L403.17 49.30 L403.67 49.19 L403.98 48.59 L403.85 48.39 L404.25 48.09 L403.30 47.16 L403.57 46.40 L402.41 47.53 L403.03 48.53 L402.53 48.91 L403.03 49.24 L402.95 49.88 L401.73 50.91 L398.00 51.25 L394.27 50.20 L393.85 49.16 L393.57 49.07 L394.04 48.37 L395.02 47.67 L397.67 46.62 L396.72 46.15 L396.99 45.41 L396.49 45.06 L396.41 44.68 L395.88 44.60 L396.29 43.96 L396.18 43.22 L395.67 42.80 L395.96 42.60 L395.14 41.95 L394.68 41.97 L394.89 41.56 L394.27 41.09 L394.28 40.23 L393.47 39.94 L393.15 40.54 L393.56 40.84 L393.54 41.26 L393.07 41.70 L393.62 41.68 L393.83 42.16 L393.12 42.50 L392.22 43.58 L391.62 44.97 L391.75 45.67 L391.43 46.01 L391.84 46.50 L392.28 46.55 L391.28 46.86 L391.41 47.39 L390.92 48.19 L391.25 48.72 L390.96 49.40 L391.35 49.80 L391.15 50.17 L391.25 50.77 L392.09 50.38 L392.19 50.62 L392.43 50.13 L392.90 50.14 L393.20 50.51 L393.42 51.23 L393.04 52.26 L393.70 52.01 L393.88 52.83 L393.29 53.85 L392.79 53.35 L392.80 51.96 L391.31 52.17 L390.84 51.19 L390.34 50.95 L390.24 50.38 L389.89 50.31 L390.07 50.14 L388.47 49.48 L388.24 48.80 L388.87 48.95 L388.24 48.66 L388.91 48.75 L388.27 48.58 L389.01 48.44 L388.38 48.40 L388.87 48.26 L388.46 48.27 L388.44 47.45 L386.89 47.54 L389.01 46.91 L389.03 46.57 L389.61 45.98 L389.51 45.08 L390.28 44.26 L390.32 43.48 L391.59 41.38 L391.82 40.67 L391.44 40.01 L391.85 39.85 L391.91 39.31 L391.40 39.12 L391.26 38.48 L391.60 37.84 L391.44 37.68 L391.57 37.26 L391.24 36.96 L391.48 36.46 L391.04 36.34 L390.77 35.34 L390.00 35.45 L389.42 35.13 L389.62 34.25 L389.25 34.57 L388.84 34.29 L389.07 33.72 L388.78 33.22 L388.15 32.94 L388.74 31.92 L387.70 31.64 L387.50 32.02 L387.10 31.89 L386.84 32.67 L386.27 32.79 L385.66 31.19 L385.16 30.82 L384.64 31.24 L384.04 30.30 L383.92 30.57 L383.89 30.37 L382.87 30.77 L382.67 30.57 L382.44 30.97 L381.32 31.03 L381.42 29.93 L380.49 29.30 L380.56 28.57 L379.54 28.92 L379.57 29.29 L378.99 29.64 L378.01 28.96 L377.52 27.78 L377.67 26.13 L377.45 25.70 L377.83 25.50 L378.01 25.00 L377.72 25.03 L377.74 24.67 L377.50 24.61 L377.76 24.33 L377.68 24.01 L377.00 24.51 L376.18 24.03 L376.10 24.25 L374.70 24.00 L374.50 24.55 L373.47 24.82 L373.08 25.75 L372.58 25.90 L372.24 25.40 L371.58 25.73 L371.52 26.14 L370.87 26.70 L371.59 28.62 L371.27 28.96 L370.74 29.01 L370.21 28.35 L370.01 28.49 L369.33 27.39 L368.37 27.96 L368.31 28.55 L366.63 29.85 L366.04 31.13 L366.18 31.45 L365.61 32.11 L366.41 32.55 L365.45 33.00 L364.97 34.09 L364.61 34.31 L364.38 34.23 L364.51 33.86 L365.25 33.02 L365.22 32.43 L365.49 32.35 L365.25 32.31 L365.46 30.58 L364.95 30.03 L365.33 29.20 L364.91 28.65 L363.68 29.54 L363.22 29.48 L362.29 28.19 L361.37 28.36 L360.03 29.28 L359.36 29.19 L359.24 28.79 L359.16 28.75 L358.79 29.23 L359.13 30.05 L358.86 30.90 L357.63 31.02 L356.84 31.88 L356.47 33.08 L355.70 33.39 L355.27 33.18 L354.33 31.85 L354.54 31.35 L355.67 31.01 L355.34 30.58 L354.93 30.81 L354.51 30.27 L353.52 30.57 L353.68 29.88 L353.44 30.34 L353.29 29.93 L352.92 30.30 L352.88 29.77 L352.18 29.35 L352.06 29.82 L351.65 29.54 L351.69 30.27 L351.01 30.47 L350.87 30.08 L350.52 30.02 L350.76 29.82 L350.59 28.78 L350.04 28.85 L349.57 29.69 L348.96 30.03 L349.07 30.48 L349.40 30.55 L348.63 31.10 L348.40 31.78 L348.95 32.11 L348.29 32.18 L348.15 32.53 L349.28 32.57 L349.03 33.18 L349.41 33.40 L349.12 33.49 L348.85 34.13 L349.32 34.72 L350.02 34.48 L351.31 35.25 L351.82 34.93 L352.28 34.11 L353.59 33.74 L353.62 33.37 L354.30 33.15 L355.53 33.79 L356.19 35.05 L356.77 35.21 L357.05 35.80 L356.65 36.58 L356.79 37.65 L356.52 37.72 L356.12 38.67 L356.30 39.56 L356.85 39.54 L356.94 39.79 L355.90 40.73 L356.41 41.03 L356.29 41.40 L355.74 41.51 L355.42 41.99 L355.53 42.27 L356.00 42.29 L356.03 42.84 L355.56 43.53 L354.40 44.34 L354.44 44.62 L354.77 44.69 L354.61 44.79 L354.76 45.20 L354.27 45.59 L355.11 45.86 L353.56 46.55 L353.33 46.97 L353.66 48.10 L352.82 48.47 L353.28 48.76 L353.28 50.03 L353.56 49.86 L353.37 50.23 L353.73 50.67 L355.61 51.00 L355.28 51.28 L355.51 51.53 L355.18 51.73 L355.26 52.13 L354.66 52.55 L354.77 52.65 L354.43 53.19 L354.57 53.26 L354.30 53.48 L354.53 53.65 L354.32 54.03 L355.37 54.24 L355.85 54.64 L356.87 54.52 L356.94 54.92 L356.51 55.09 L356.46 55.42 L357.24 55.40 L357.55 56.27 L358.16 56.60 L358.25 57.77 L358.12 58.18 L357.75 58.34 L357.91 58.58 L357.35 60.02 L356.46 60.74 L355.91 60.75 L355.65 61.71 L354.77 62.97 L353.56 63.25 L352.51 63.96 L352.77 64.72 L352.58 65.22 L351.65 65.50 L349.91 65.24 L349.78 65.60 L347.35 66.25 L347.14 66.08 L347.15 65.45 L346.82 65.60 L346.52 65.27 L346.13 65.40 L345.82 66.25 L345.44 66.35 L344.75 66.08 L344.45 65.15 L343.46 64.99 L343.23 65.35 L342.65 65.48 L342.22 66.75 L342.69 67.07 L342.60 67.53 L343.49 67.63 L343.63 68.39 L342.88 69.65 L340.41 72.30 L339.99 73.07 L338.20 73.95 L336.92 73.59 L335.96 74.07 L335.60 74.64 L335.03 74.85 L334.84 74.65 L334.44 75.18 L332.80 75.29 L332.53 76.10 L330.83 76.36 L330.00 75.65 L329.83 75.99 L328.96 76.25 L327.49 75.74 L325.88 76.37 L324.29 76.32 L324.34 76.10 L323.86 76.15 L323.43 75.49 L323.71 75.25 L323.61 74.42 L322.81 74.55 L322.76 74.01 L322.11 74.01 L321.66 73.56 L321.55 73.21 L321.81 72.57 L321.15 72.58 L320.43 72.09 L318.82 72.50 L318.39 73.13 L317.84 73.37 L318.08 73.49 L318.02 73.82 L317.32 73.86 L317.40 74.19 L317.13 73.99 L316.54 74.42 L316.39 74.02 L316.25 74.32 L315.42 74.33 L315.75 74.83 L315.11 75.44 L315.10 76.01 L314.86 76.20 L315.02 76.43 L313.73 76.82 L312.00 76.49 L312.19 76.67 L311.66 77.27 L311.37 76.83 L310.73 77.34 L309.76 77.26 L309.94 77.50 L309.56 77.78 L309.96 78.05 L308.84 78.79 L307.80 80.01 L307.76 81.36 L306.86 81.84 L307.11 82.11 L306.33 82.79 L306.16 83.56 L305.02 84.57 L305.37 84.81 L305.17 85.15 L305.30 85.45 L304.59 85.35 L303.73 85.88 L303.74 85.58 L303.32 85.73 L303.09 86.23 L303.27 87.64 L302.48 87.89 L302.65 88.07 L302.37 88.08 L302.00 89.28 L301.62 89.43 L301.68 89.69 L301.12 89.54 L301.29 89.71 L300.97 89.92 L300.86 90.62 L300.50 90.55 L300.03 91.15 L299.95 91.70 L301.25 92.41 L301.06 92.68 L300.00 92.76 L300.09 94.00 L299.28 93.57 L298.66 94.12 L298.26 94.03 L298.04 94.44 L298.48 94.38 L298.01 94.78 L298.26 94.95 L297.68 95.49 L297.53 95.26 L296.87 95.54 L295.85 96.99 L296.71 97.22 L295.55 97.62 L295.32 98.19 L294.78 98.23 L294.45 98.84 L293.98 98.97 L293.27 100.16 L293.01 100.01 L292.69 100.29 L292.58 100.85 L291.71 101.94 L291.86 102.22 L291.57 102.42 L291.64 102.68 L291.30 102.70 L291.46 102.89 L291.14 102.92 L291.08 103.52 L290.39 104.34 L290.08 104.31 L290.00 103.98 L289.64 104.88 L288.95 105.37 L288.14 105.44 L287.50 106.27 L287.29 106.13 L286.82 106.48 L287.26 106.98 L287.03 107.50 L286.49 107.53 L286.03 107.96 L286.02 108.38 L286.40 108.18 L286.57 108.51 L286.12 108.81 L285.35 110.17 L284.83 110.35 L284.67 109.93 L284.85 109.77 L284.57 109.67 L283.54 110.03 L283.60 109.67 L282.65 110.28 L282.93 110.46 L282.57 110.55 L282.82 110.83 L282.41 110.60 L282.22 111.07 L282.51 110.97 L282.16 111.32 L282.39 111.51 L282.13 111.65 L282.50 112.20 L282.18 112.20 L282.27 112.63 L281.95 113.31 L281.57 113.19 L281.35 113.56 L280.40 112.80 L280.13 112.96 L280.06 112.52 L278.74 112.86 L278.41 112.44 L278.16 112.90 L277.51 112.39 L277.63 112.80 L276.65 113.41 L276.33 113.25 L276.01 114.06 L275.58 113.85 L275.63 114.14 L275.04 114.12 L275.13 114.43 L274.74 114.66 L275.10 114.50 L274.73 114.90 L274.88 115.01 L274.21 115.13 L273.53 115.89 L273.22 116.76 L272.82 116.42 L271.81 116.43 L271.81 116.16 L270.91 116.22 L270.54 115.88 L270.28 116.15 L270.16 115.66 L269.46 115.81 L269.88 116.04 L269.33 116.25 L270.38 116.60 L269.83 117.17 L270.25 116.96 L270.28 117.29 L271.24 117.46 L271.28 117.78 L270.89 117.85 L270.80 118.18 L271.27 118.57 L271.13 118.72 L271.69 118.57 L271.45 119.45 L272.23 120.09 L271.97 120.71 L271.40 121.13 L270.32 120.89 L269.24 120.03 L268.61 120.73 L267.96 120.46 L268.08 120.95 L267.31 120.89 L266.58 121.44 L266.69 122.15 L267.14 122.58 L266.74 122.05 L266.94 121.62 L267.60 121.81 L267.25 122.28 L267.65 121.99 L268.37 122.39 L268.66 123.26 L268.55 123.72 L267.95 123.79 L268.06 124.06 L267.76 124.25 L268.76 125.43 L268.13 126.07 L267.40 126.00 L267.13 126.38 L267.82 128.10 L267.29 129.14 L264.62 133.23 L256.65 143.72 L251.27 149.81 L243.45 157.06 L239.95 159.18 L238.98 159.25 L235.77 160.43 L234.98 159.82 L233.39 160.51 L232.05 159.65 L229.34 160.15 L228.14 159.12 L226.77 159.68 L226.52 160.49 L226.35 159.91 L225.47 160.20 L225.00 160.01 L223.99 160.77 L223.62 161.45 L221.14 161.59 L220.08 161.40 L219.84 161.13 L219.58 159.70 L218.77 159.62 L218.67 159.25 L218.24 159.45 L217.19 161.22 L215.65 160.99 L215.99 161.75 L216.56 162.09 L216.41 162.34 L215.60 161.72 L215.46 161.98 L215.12 161.60 L214.35 161.55 L214.83 160.98 L215.45 161.18 L215.33 160.92 L215.95 160.47 L215.17 160.94 L214.79 160.87 L214.18 161.64 L213.31 161.71 L212.21 162.95 L211.81 164.09 L209.90 165.50 L206.79 167.39 L205.88 167.29 L205.42 168.14 L204.50 168.23 L204.24 167.82 L204.09 168.18 L203.52 168.37 L203.30 168.98 L202.09 168.73 L201.98 169.08 L201.43 169.12 L201.40 169.43 L200.50 170.09 L199.56 169.95 L198.90 170.41 L198.33 171.63 L197.38 171.77 L196.99 172.69 L196.53 172.60 L196.59 172.81 L195.88 173.40 L194.54 173.72 L194.14 174.20 L194.36 174.15 L194.44 174.48 L194.23 174.54 L194.24 174.24 L194.15 174.75 L193.83 174.70 L193.93 175.16 L193.34 176.01 L193.11 178.02 L192.39 179.20 L192.32 180.31 L191.95 181.09 L190.86 182.38 L188.02 184.62 L186.23 186.60 L178.35 191.44 L172.31 194.07 L166.54 195.92 L161.15 197.08 L149.83 198.64 L142.50 198.85 L140.37 198.51 L140.04 198.05 L139.57 198.23 L138.53 197.97 L134.25 195.00 L132.99 194.66 L133.08 194.22 L132.42 193.51 L131.75 193.74 L131.87 193.28 L131.56 193.24 L131.39 192.52 L131.22 192.76 L130.97 192.46 L130.62 192.69 L130.21 192.28 L130.06 192.51 L130.03 192.10 L129.38 192.18 L129.30 191.66 L129.50 191.53 L128.87 191.32 L128.96 190.30 L128.63 190.35 L128.67 190.11 L128.17 190.24 L128.18 190.50 L128.06 190.23 L127.90 190.80 L127.30 191.16 L126.44 191.10 L126.01 191.45 L125.50 190.95 L125.60 190.44 L125.38 189.88 L123.23 188.54 L123.23 188.79 L125.36 190.21 L125.23 190.41 L124.53 190.01 L125.21 190.56 L124.91 191.07 L124.21 190.65 L124.49 190.20 L124.26 190.06 L123.38 191.00 L122.93 190.72 L123.05 190.22 L122.12 190.14 L122.43 190.23 L122.37 190.55 L121.47 190.32 L121.34 189.12 L121.78 188.52 L122.47 188.43 L122.65 187.87 L123.38 187.25 L121.17 188.82 L120.96 189.76 L121.65 190.99 L121.12 191.43 L120.76 191.16 L117.34 191.06 L117.25 187.23 L117.17 188.78 L117.00 188.78 L116.97 189.96 L116.65 189.96 L116.64 191.02 L115.62 191.00 L115.63 191.64 L115.36 191.63 L115.53 190.94 L115.17 191.52 L115.19 187.69 L115.13 191.48 L114.84 191.47 L114.93 191.97 L114.14 191.78 L114.26 191.29 L114.05 191.23 L110.31 191.10 L110.31 190.62 L110.09 190.61 L110.16 187.69 L110.00 187.68 L109.95 190.81 L109.33 190.49 L107.76 190.67 L108.65 186.55 L112.02 185.55 L118.95 186.17 L112.26 185.46 L108.43 186.42 L107.63 190.61 L106.38 190.27 L106.28 189.47 L106.76 189.59 L106.59 189.44 L102.95 189.53 L101.86 188.48 L100.65 189.21 L97.30 188.65 L96.10 187.43 L94.55 186.78 L93.60 186.13 L93.51 185.72 L93.24 185.49 L93.36 185.83 L91.58 184.65 L87.05 180.59 L82.70 175.97 L80.15 172.70 L79.89 171.96 L77.99 170.64 L74.35 165.42 L72.55 161.99 L72.70 160.92 L73.38 161.00 L73.62 160.65 L73.69 159.96 L73.08 159.06 L73.39 158.32 L72.92 157.96 L73.33 157.03 L72.62 157.32 L72.45 156.60 L71.83 156.51 L71.71 155.65 L72.64 155.65 L71.90 155.27 L71.68 154.66 L70.98 154.51 L71.38 153.90 L71.06 153.62 L71.61 153.04 L70.74 152.19 L71.34 152.20 L71.93 152.68 L71.78 151.56 L70.04 151.44 L71.02 151.17 L71.82 151.46 L72.22 150.96 L72.85 150.95 L73.19 151.69 L72.92 152.58 L73.24 152.04 L73.18 150.88 L72.79 150.72 L72.70 150.45 L72.94 150.18 L72.50 149.79 L72.75 149.44 L72.38 149.10 L72.98 149.37 L73.31 149.07 L73.29 148.37 L73.64 148.19 L73.28 147.52 L73.76 147.27 L73.77 146.92 L74.15 146.88 L73.89 145.97 L74.24 145.66 L72.66 145.28 L71.86 145.58 L71.69 145.93 L71.48 145.63 L70.79 145.58 L70.41 144.91 L69.68 144.95 L69.55 144.23 L68.97 144.11 L68.65 143.20 L68.55 143.16 L68.46 143.20 L68.60 143.62 L68.48 143.33 L67.98 143.50 L66.79 142.95 L65.72 140.48 L65.03 139.92 L64.34 138.69 L63.79 138.24 L63.70 138.74 L63.30 137.87 L63.18 138.30 L62.72 137.96 L63.26 138.67 L62.89 138.99 L62.55 138.82 L62.53 139.35 L62.20 139.27 L62.97 140.15 L62.42 140.19 L62.31 140.47 L62.16 140.20 L62.06 140.62 L61.90 140.39 L62.03 141.48 L62.62 141.63 L61.73 142.17 L62.11 142.86 L60.93 143.42 L60.42 143.26 L60.30 143.86 L59.38 144.01 L59.60 144.35 L59.38 144.57 L59.52 144.91 L59.90 145.32 L59.61 145.62 L59.09 145.58 L58.89 145.89 L59.06 146.19 L58.72 146.10 L58.86 146.28 L58.60 146.21 L58.64 146.43 L58.34 146.45 L58.47 146.62 L58.16 146.70 L58.13 147.36 L58.42 147.70 L57.72 147.88 L57.91 148.55 L57.52 148.63 L57.83 149.22 L57.39 149.21 L57.68 149.56 L57.23 149.90 L57.37 150.37 L58.05 151.02 L57.76 150.98 L57.87 151.26 L56.59 150.88 L55.87 151.18 L55.75 151.68 L56.01 151.86 L55.61 151.91 L55.58 152.23 L56.47 152.65 L55.46 152.75 L55.38 153.30 L55.78 153.32 L55.61 153.74 L55.99 153.79 L55.95 154.07 L56.42 153.75 L56.45 154.24 L56.86 154.19 L56.73 154.71 L57.96 155.60 L57.54 155.71 L57.81 156.12 L58.35 156.07 L59.05 156.44 L58.99 156.71 L59.37 156.62 L60.01 157.11 L59.80 157.24 L59.88 157.64 L60.33 157.65 L60.10 157.90 L60.35 158.29 L59.31 159.43 L59.90 159.86 L60.10 160.88 L60.43 160.98 L60.11 161.16 L60.13 161.46 L63.05 162.10 L63.17 162.56 L64.25 163.20 L63.95 163.74 L64.98 163.98 L65.18 164.46 L64.96 164.70 L65.48 165.11 L65.28 165.36 L66.56 164.96 L66.56 165.31 L66.98 165.58 L66.89 166.07 L67.82 166.10 L68.95 166.75 L68.34 167.16 L68.11 167.86 L67.81 167.55 L67.28 167.94 L67.50 168.15 L68.08 168.00 L68.60 168.62 L68.33 169.07 L69.62 169.71 L69.30 170.18 L69.67 170.85 L69.26 171.29 L69.89 171.51 L69.96 172.07 L68.86 172.83 L69.03 173.07 L68.69 173.35 L68.85 173.78 L67.60 174.46 L68.07 175.09 L67.82 175.30 L68.10 175.72 L67.97 176.14 L68.34 176.35 L68.15 177.85 L68.47 178.01 L68.54 178.30 L68.27 178.48 L68.49 179.18 L67.56 179.38 L67.68 180.22 L67.28 180.62 L67.22 181.49 L66.57 181.83 L66.56 182.23 L66.23 182.54 L66.42 183.18 L66.14 183.23 L65.81 184.38 L65.41 184.41 L65.77 184.67 L64.92 185.27 L65.07 185.56 L64.77 185.55 L64.98 186.84 L63.88 187.33 L63.55 188.99 L62.89 189.41 L62.44 190.75 L62.04 191.01 L62.34 191.93 L61.79 192.00 L61.17 192.61 L60.49 192.38 L60.35 193.01 L59.96 192.97 L60.06 193.34 L60.75 193.70 L60.69 194.38 L61.27 194.65 L61.39 195.20 L60.70 196.34 L59.84 196.67 L60.04 197.71 L60.28 197.93 L59.29 198.53 L58.54 198.31 L58.42 198.54 L58.70 198.90 L57.87 199.43 L58.46 199.84 L59.01 201.78 L58.16 201.65 L57.57 201.95 L57.54 201.72 L57.50 202.00 L56.35 202.46 L56.35 202.89 L55.96 203.44 L56.24 204.81 L55.32 205.65 L55.45 206.16 L54.18 206.70 L53.32 206.39 L53.04 207.00 L53.32 207.20 L53.44 207.92 L52.95 207.76 L52.74 208.26 L52.32 208.24 L52.32 207.97 L52.20 208.31 L51.38 207.90 L50.97 208.54 L50.60 210.04 L51.47 210.02 L51.98 210.43 L51.90 211.24 L51.42 211.90 L52.38 212.77 L51.78 213.53 L51.75 214.02 L52.89 214.34 L52.44 215.74 L52.07 215.40 L51.72 216.02 L52.78 216.98 L52.19 218.47 L52.37 218.73 L51.91 218.76 L52.64 219.74 L52.36 220.27 L51.92 220.27 L51.79 221.14 L51.34 221.12 L51.28 220.83 L50.79 221.07 L51.04 221.38 L50.91 222.36 L50.08 223.10 L50.06 223.85 L49.39 224.70 L49.30 225.44 L49.53 226.07 L49.24 225.90 L49.17 226.17 L49.72 226.86 L48.34 226.74 L47.27 227.23 L47.41 227.58 L46.99 227.95 L47.09 228.27 L46.36 228.47 L46.12 228.24 L46.20 228.50 L45.80 228.79 L46.03 229.18 L45.78 229.27 L46.74 229.90 L46.49 230.58 L45.90 230.52 L45.24 231.01 L44.70 230.62 L44.55 230.97 L44.09 230.73 L43.87 231.15 L42.99 231.19 L43.53 231.59 L43.03 231.70 L42.94 232.00 L43.82 232.68 L43.12 233.50 L41.67 233.21 Z" fill="#A0612A" fill-opacity=".16" stroke="#A0612A" stroke-opacity=".72" stroke-width="4"/>
  <text x="580" y="986" text-anchor="end" font-family="Arial, sans-serif" font-size="10" fill="#1C1814">© OpenStreetMap contributors · ODbL</text>
</svg>